<svg width="851" height="193" viewBox="0 0 851 193" fill="none" xmlns="http://www.w3.org/2000/svg">
<g clip-path="url(#clip0_329_4377)">
<rect width="883" height="193" fill="url(#paint0_linear_329_4377)"/>
<g clip-path="url(#clip1_329_4377)">
<path d="M767.394 184.889C767.613 184.889 767.789 184.624 767.789 184.296C767.789 183.969 767.613 183.704 767.394 183.704C767.176 183.704 767 183.969 767 184.296C767 184.624 767.176 184.889 767.394 184.889Z" fill="#D9D9D9" fill-opacity="0.5"/>
<path d="M513.044 192C513.262 192 513.439 191.735 513.439 191.408C513.439 191.081 513.262 190.815 513.044 190.815C512.826 190.815 512.649 191.081 512.649 191.408C512.649 191.735 512.826 192 513.044 192Z" fill="#D9D9D9" fill-opacity="0.5"/>
<path d="M430.104 178.962C430.323 178.962 430.499 178.697 430.499 178.37C430.499 178.042 430.323 177.777 430.104 177.777C429.886 177.777 429.709 178.042 429.709 178.37C429.709 178.697 429.886 178.962 430.104 178.962Z" fill="#D9D9D9" fill-opacity="0.5"/>
<path d="M189.183 133.926C189.401 133.926 189.578 133.66 189.578 133.333C189.578 133.006 189.401 132.741 189.183 132.741C188.964 132.741 188.788 133.006 188.788 133.333C188.788 133.66 188.964 133.926 189.183 133.926Z" fill="#D9D9D9" fill-opacity="0.5"/>
<path d="M337.685 149.333C337.903 149.333 338.08 149.067 338.08 148.74C338.08 148.413 337.903 148.148 337.685 148.148C337.467 148.148 337.29 148.413 337.29 148.74C337.29 149.067 337.467 149.333 337.685 149.333Z" fill="#D9D9D9" fill-opacity="0.5"/>
<path d="M279.232 164.741C279.45 164.741 279.627 164.476 279.627 164.149C279.627 163.821 279.45 163.556 279.232 163.556C279.014 163.556 278.837 163.821 278.837 164.149C278.837 164.476 279.014 164.741 279.232 164.741Z" fill="#D9D9D9" fill-opacity="0.5"/>
<path d="M211.3 177.778C211.518 177.778 211.695 177.513 211.695 177.185C211.695 176.858 211.518 176.593 211.3 176.593C211.082 176.593 210.905 176.858 210.905 177.185C210.905 177.513 211.082 177.778 211.3 177.778Z" fill="#D9D9D9" fill-opacity="0.5"/>
<path d="M369.281 85.3333C369.499 85.3333 369.676 85.0679 369.676 84.7407C369.676 84.4134 369.499 84.1481 369.281 84.1481C369.063 84.1481 368.886 84.4134 368.886 84.7407C368.886 85.0679 369.063 85.3333 369.281 85.3333Z" fill="#D9D9D9" fill-opacity="0.5"/>
<path d="M488.558 79.4074C488.776 79.4074 488.953 79.142 488.953 78.8148C488.953 78.4875 488.776 78.2222 488.558 78.2222C488.339 78.2222 488.163 78.4875 488.163 78.8148C488.163 79.142 488.339 79.4074 488.558 79.4074Z" fill="#D9D9D9" fill-opacity="0.5"/>
<path d="M463.28 139.852C464.371 139.852 465.255 138.525 465.255 136.889C465.255 135.252 464.371 133.926 463.28 133.926C462.19 133.926 461.306 135.252 461.306 136.889C461.306 138.525 462.19 139.852 463.28 139.852Z" fill="#D9D9D9" fill-opacity="0.1"/>
<path d="M668.656 163.556C669.31 163.556 669.841 162.76 669.841 161.778C669.841 160.796 669.31 160 668.656 160C668.002 160 667.471 160.796 667.471 161.778C667.471 162.76 668.002 163.556 668.656 163.556Z" fill="#D9D9D9" fill-opacity="0.5"/>
<path d="M577.027 133.926C577.681 133.926 578.212 133.13 578.212 132.148C578.212 131.166 577.681 130.37 577.027 130.37C576.372 130.37 575.842 131.166 575.842 132.148C575.842 133.13 576.372 133.926 577.027 133.926Z" fill="#D9D9D9" fill-opacity="0.5"/>
<path d="M255.14 148.149C255.576 148.149 255.93 147.618 255.93 146.963C255.93 146.309 255.576 145.778 255.14 145.778C254.704 145.778 254.35 146.309 254.35 146.963C254.35 147.618 254.704 148.149 255.14 148.149Z" fill="#D9D9D9" fill-opacity="0.5"/>
<path d="M830.587 135.111C830.805 135.111 830.982 134.846 830.982 134.518C830.982 134.191 830.805 133.926 830.587 133.926C830.369 133.926 830.192 134.191 830.192 134.518C830.192 134.846 830.369 135.111 830.587 135.111Z" fill="#D9D9D9" fill-opacity="0.5"/>
<path d="M808.47 100.741C808.688 100.741 808.865 100.475 808.865 100.148C808.865 99.8209 808.688 99.5555 808.47 99.5555C808.252 99.5555 808.075 99.8209 808.075 100.148C808.075 100.475 808.252 100.741 808.47 100.741Z" fill="#D9D9D9" fill-opacity="0.5"/>
<path d="M791.881 187.259C792.099 187.259 792.276 186.994 792.276 186.667C792.276 186.34 792.099 186.074 791.881 186.074C791.663 186.074 791.486 186.34 791.486 186.667C791.486 186.994 791.663 187.259 791.881 187.259Z" fill="#D9D9D9" fill-opacity="0.5"/>
<path d="M736.588 175.407C736.806 175.407 736.983 175.142 736.983 174.815C736.983 174.487 736.806 174.222 736.588 174.222C736.37 174.222 736.193 174.487 736.193 174.815C736.193 175.142 736.37 175.407 736.588 175.407Z" fill="#D9D9D9" fill-opacity="0.5"/>
<path d="M644.959 131.556C645.177 131.556 645.354 131.29 645.354 130.963C645.354 130.636 645.177 130.37 644.959 130.37C644.741 130.37 644.564 130.636 644.564 130.963C644.564 131.29 644.741 131.556 644.959 131.556Z" fill="#D9D9D9" fill-opacity="0.5"/>
<path d="M567.548 55.7037C567.766 55.7037 567.943 55.4384 567.943 55.1111C567.943 54.7839 567.766 54.5186 567.548 54.5186C567.33 54.5186 567.153 54.7839 567.153 55.1111C567.153 55.4384 567.33 55.7037 567.548 55.7037Z" fill="#D9D9D9" fill-opacity="0.5"/>
<path d="M716.05 71.1112C716.268 71.1112 716.445 70.8459 716.445 70.5186C716.445 70.1913 716.268 69.926 716.05 69.926C715.832 69.926 715.655 70.1913 715.655 70.5186C715.655 70.8459 715.832 71.1112 716.05 71.1112Z" fill="#D9D9D9" fill-opacity="0.5"/>
<path d="M543.851 136.296C544.069 136.296 544.246 136.031 544.246 135.704C544.246 135.376 544.069 135.111 543.851 135.111C543.633 135.111 543.456 135.376 543.456 135.704C543.456 136.031 543.633 136.296 543.851 136.296Z" fill="#D9D9D9" fill-opacity="0.5"/>
<path d="M752.386 118.519C752.604 118.519 752.781 118.253 752.781 117.926C752.781 117.599 752.604 117.333 752.386 117.333C752.168 117.333 751.991 117.599 751.991 117.926C751.991 118.253 752.168 118.519 752.386 118.519Z" fill="#D9D9D9" fill-opacity="0.5"/>
<path d="M657.598 86.5186C657.816 86.5186 657.993 86.2532 657.993 85.926C657.993 85.5987 657.816 85.3334 657.598 85.3334C657.379 85.3334 657.203 85.5987 657.203 85.926C657.203 86.2532 657.379 86.5186 657.598 86.5186Z" fill="#D9D9D9" fill-opacity="0.5"/>
<path d="M602.304 150.519C602.522 150.519 602.699 150.253 602.699 149.926C602.699 149.599 602.522 149.333 602.304 149.333C602.086 149.333 601.909 149.599 601.909 149.926C601.909 150.253 602.086 150.519 602.304 150.519Z" fill="#D9D9D9" fill-opacity="0.5"/>
<path d="M510.675 149.333C510.893 149.333 511.07 149.067 511.07 148.74C511.07 148.413 510.893 148.148 510.675 148.148C510.457 148.148 510.28 148.413 510.28 148.74C510.28 149.067 510.457 149.333 510.675 149.333Z" fill="#D9D9D9" fill-opacity="0.5"/>
<path d="M589.665 99.5555C589.884 99.5555 590.06 99.2902 590.06 98.963C590.06 98.6357 589.884 98.3704 589.665 98.3704C589.447 98.3704 589.271 98.6357 589.271 98.963C589.271 99.2902 589.447 99.5555 589.665 99.5555Z" fill="#D9D9D9" fill-opacity="0.5"/>
<path d="M747.647 7.11109C747.865 7.11109 748.042 6.84578 748.042 6.5185C748.042 6.19122 747.865 5.9259 747.647 5.9259C747.429 5.9259 747.252 6.19122 747.252 6.5185C747.252 6.84578 747.429 7.11109 747.647 7.11109Z" fill="#D9D9D9" fill-opacity="0.5"/>
<path d="M841.646 61.6295C842.736 61.6295 843.62 60.303 843.62 58.6666C843.62 57.0302 842.736 55.7036 841.646 55.7036C840.555 55.7036 839.671 57.0302 839.671 58.6666C839.671 60.303 840.555 61.6295 841.646 61.6295Z" fill="#D9D9D9" fill-opacity="0.1"/>
<path d="M705.782 168.297C706.436 168.297 706.966 167.501 706.966 166.519C706.966 165.537 706.436 164.741 705.782 164.741C705.127 164.741 704.597 165.537 704.597 166.519C704.597 167.501 705.127 168.297 705.782 168.297Z" fill="#D9D9D9" fill-opacity="0.5"/>
<path d="M591.64 178.963C592.513 178.963 593.22 177.902 593.22 176.593C593.22 175.284 592.513 174.223 591.64 174.223C590.768 174.223 590.061 175.284 590.061 176.593C590.061 177.902 590.768 178.963 591.64 178.963Z" fill="#D9D9D9" fill-opacity="0.1"/>
<path d="M633.505 69.9259C633.941 69.9259 634.295 69.3953 634.295 68.7407C634.295 68.0862 633.941 67.5555 633.505 67.5555C633.069 67.5555 632.715 68.0862 632.715 68.7407C632.715 69.3953 633.069 69.9259 633.505 69.9259Z" fill="#D9D9D9" fill-opacity="0.5"/>
</g>
<g clip-path="url(#clip2_329_4377)">
<path d="M210.51 15.3708C210.728 15.3708 210.905 15.1054 210.905 14.7781C210.905 14.4508 210.728 14.1855 210.51 14.1855C210.292 14.1855 210.115 14.4508 210.115 14.7781C210.115 15.1054 210.292 15.3708 210.51 15.3708Z" fill="#D9D9D9" fill-opacity="0.5"/>
<path d="M2.76458 16.5553C2.98271 16.5553 3.15954 16.29 3.15954 15.9627C3.15954 15.6354 2.98271 15.3701 2.76458 15.3701C2.54646 15.3701 2.36963 15.6354 2.36963 15.9627C2.36963 16.29 2.54646 16.5553 2.76458 16.5553Z" fill="#D9D9D9" fill-opacity="0.5"/>
<path d="M110.192 34.3327C110.41 34.3327 110.587 34.0673 110.587 33.74C110.587 33.4127 110.41 33.1475 110.192 33.1475C109.974 33.1475 109.797 33.4127 109.797 33.74C109.797 34.0673 109.974 34.3327 110.192 34.3327Z" fill="#D9D9D9" fill-opacity="0.5"/>
<path d="M3.55462 63.9637C3.77275 63.9637 3.94957 63.6984 3.94957 63.3711C3.94957 63.0439 3.77275 62.7786 3.55462 62.7786C3.33649 62.7786 3.15967 63.0439 3.15967 63.3711C3.15967 63.6984 3.33649 63.9637 3.55462 63.9637Z" fill="#D9D9D9" fill-opacity="0.1"/>
<path d="M80.9653 53.2961C81.1834 53.2961 81.3602 53.0308 81.3602 52.7035C81.3602 52.3762 81.1834 52.1108 80.9653 52.1108C80.7471 52.1108 80.5703 52.3762 80.5703 52.7035C80.5703 53.0308 80.7471 53.2961 80.9653 53.2961Z" fill="#D9D9D9" fill-opacity="0.1"/>
<path d="M186.813 42.6298C187.031 42.6298 187.208 42.3645 187.208 42.0373C187.208 41.71 187.031 41.4447 186.813 41.4447C186.595 41.4447 186.418 41.71 186.418 42.0373C186.418 42.3645 186.595 42.6298 186.813 42.6298Z" fill="#D9D9D9" fill-opacity="0.1"/>
<path d="M252.375 43.8145C252.594 43.8145 252.77 43.5492 252.77 43.2219C252.77 42.8946 252.594 42.6293 252.375 42.6293C252.157 42.6293 251.98 42.8946 251.98 43.2219C251.98 43.5492 252.157 43.8145 252.375 43.8145Z" fill="#D9D9D9" fill-opacity="0.1"/>
<path d="M572.288 14.1849C572.506 14.1849 572.682 13.9195 572.682 13.5922C572.682 13.2649 572.506 12.9996 572.288 12.9996C572.069 12.9996 571.893 13.2649 571.893 13.5922C571.893 13.9195 572.069 14.1849 572.288 14.1849Z" fill="#D9D9D9" fill-opacity="0.1"/>
<path d="M469.6 52.1115C469.818 52.1115 469.994 51.8462 469.994 51.519C469.994 51.1917 469.818 50.9264 469.6 50.9264C469.381 50.9264 469.205 51.1917 469.205 51.519C469.205 51.8462 469.381 52.1115 469.6 52.1115Z" fill="#D9D9D9" fill-opacity="0.5"/>
<path d="M418.256 8.25935C418.474 8.25935 418.651 7.99407 418.651 7.66679C418.651 7.33951 418.474 7.07422 418.256 7.07422C418.038 7.07422 417.861 7.33951 417.861 7.66679C417.861 7.99407 418.038 8.25935 418.256 8.25935Z" fill="#D9D9D9" fill-opacity="0.5"/>
<path d="M351.903 24.8525C352.121 24.8525 352.298 24.5872 352.298 24.2599C352.298 23.9326 352.121 23.6672 351.903 23.6672C351.685 23.6672 351.508 23.9326 351.508 24.2599C351.508 24.5872 351.685 24.8525 351.903 24.8525Z" fill="#D9D9D9" fill-opacity="0.5"/>
<path d="M374.021 42.6298C374.239 42.6298 374.416 42.3645 374.416 42.0373C374.416 41.71 374.239 41.4447 374.021 41.4447C373.803 41.4447 373.626 41.71 373.626 42.0373C373.626 42.3645 373.803 42.6298 374.021 42.6298Z" fill="#D9D9D9" fill-opacity="0.5"/>
<path d="M296.61 24.8525C296.828 24.8525 297.005 24.5872 297.005 24.2599C297.005 23.9326 296.828 23.6672 296.61 23.6672C296.392 23.6672 296.215 23.9326 296.215 24.2599C296.215 24.5872 296.392 24.8525 296.61 24.8525Z" fill="#D9D9D9" fill-opacity="0.5"/>
<path d="M57.268 33.1482C57.4861 33.1482 57.663 32.8829 57.663 32.5557C57.663 32.2284 57.4861 31.963 57.268 31.963C57.0499 31.963 56.873 32.2284 56.873 32.5557C56.873 32.8829 57.0499 33.1482 57.268 33.1482Z" fill="#D9D9D9" fill-opacity="0.5"/>
<path d="M533.582 28.408C534.236 28.408 534.767 27.6121 534.767 26.6302C534.767 25.6484 534.236 24.8525 533.582 24.8525C532.927 24.8525 532.397 25.6484 532.397 26.6302C532.397 27.6121 532.927 28.408 533.582 28.408Z" fill="#D9D9D9" fill-opacity="0.5"/>
<path d="M498.826 7.07413C499.48 7.07413 500.011 6.27818 500.011 5.29634C500.011 4.3145 499.48 3.51855 498.826 3.51855C498.172 3.51855 497.641 4.3145 497.641 5.29634C497.641 6.27818 498.172 7.07413 498.826 7.07413Z" fill="#D9D9D9" fill-opacity="0.5"/>
<path d="M159.166 44.9996C159.821 44.9996 160.351 44.2037 160.351 43.2219C160.351 42.24 159.821 41.4441 159.166 41.4441C158.512 41.4441 157.981 42.24 157.981 43.2219C157.981 44.2037 158.512 44.9996 159.166 44.9996Z" fill="#D9D9D9" fill-opacity="0.5"/>
<path d="M0.789907 46.1851C1.22616 46.1851 1.57981 45.6545 1.57981 44.9999C1.57981 44.3454 1.22616 43.8147 0.789907 43.8147C0.353653 43.8147 0 44.3454 0 44.9999C0 45.6545 0.353653 46.1851 0.789907 46.1851Z" fill="#D9D9D9" fill-opacity="0.1"/>
<path d="M14.6131 67.5179C15.2675 67.5179 15.7979 66.7219 15.7979 65.7401C15.7979 64.7583 15.2675 63.9624 14.6131 63.9624C13.9587 63.9624 13.4282 64.7583 13.4282 65.7401C13.4282 66.7219 13.9587 67.5179 14.6131 67.5179Z" fill="#D9D9D9" fill-opacity="0.1"/>
<path d="M428.525 7.07351C429.615 7.07351 430.499 5.7469 430.499 4.11051C430.499 2.47411 429.615 1.14758 428.525 1.14758C427.434 1.14758 426.55 2.47411 426.55 4.11051C426.55 5.7469 427.434 7.07351 428.525 7.07351Z" fill="#D9D9D9" fill-opacity="0.1"/>
<path d="M821.898 59.2215C822.116 59.2215 822.293 58.9562 822.293 58.6289C822.293 58.3017 822.116 58.0364 821.898 58.0364C821.68 58.0364 821.503 58.3017 821.503 58.6289C821.503 58.9562 821.68 59.2215 821.898 59.2215Z" fill="#D9D9D9" fill-opacity="0.5"/>
<path d="M761.075 80.5553C761.293 80.5553 761.47 80.29 761.47 79.9627C761.47 79.6354 761.293 79.3701 761.075 79.3701C760.857 79.3701 760.68 79.6354 760.68 79.9627C760.68 80.29 760.857 80.5553 761.075 80.5553Z" fill="#D9D9D9" fill-opacity="0.5"/>
<path d="M738.958 46.1849C739.176 46.1849 739.353 45.9195 739.353 45.5922C739.353 45.2649 739.176 44.9996 738.958 44.9996C738.74 44.9996 738.563 45.2649 738.563 45.5922C738.563 45.9195 738.74 46.1849 738.958 46.1849Z" fill="#D9D9D9" fill-opacity="0.5"/>
<path d="M807.68 114.926C807.898 114.926 808.075 114.66 808.075 114.333C808.075 114.006 807.898 113.74 807.68 113.74C807.461 113.74 807.285 114.006 807.285 114.333C807.285 114.66 807.461 114.926 807.68 114.926Z" fill="#D9D9D9" fill-opacity="0.5"/>
<path d="M722.37 132.703C722.588 132.703 722.765 132.438 722.765 132.111C722.765 131.783 722.588 131.518 722.37 131.518C722.151 131.518 721.975 131.783 721.975 132.111C721.975 132.438 722.151 132.703 722.37 132.703Z" fill="#D9D9D9" fill-opacity="0.5"/>
<path d="M628.371 152.852C628.589 152.852 628.766 152.587 628.766 152.26C628.766 151.933 628.589 151.667 628.371 151.667C628.153 151.667 627.976 151.933 627.976 152.26C627.976 152.587 628.153 152.852 628.371 152.852Z" fill="#D9D9D9" fill-opacity="0.5"/>
<path d="M667.076 120.852C667.294 120.852 667.471 120.587 667.471 120.26C667.471 119.933 667.294 119.667 667.076 119.667C666.858 119.667 666.681 119.933 666.681 120.26C666.681 120.587 666.858 120.852 667.076 120.852Z" fill="#D9D9D9" fill-opacity="0.5"/>
<path d="M575.447 77.0003C575.665 77.0003 575.842 76.735 575.842 76.4077C575.842 76.0804 575.665 75.8151 575.447 75.8151C575.229 75.8151 575.052 76.0804 575.052 76.4077C575.052 76.735 575.229 77.0003 575.447 77.0003Z" fill="#D9D9D9" fill-opacity="0.5"/>
<path d="M420.625 154.037C420.844 154.037 421.02 153.772 421.02 153.444C421.02 153.117 420.844 152.852 420.625 152.852C420.407 152.852 420.23 153.117 420.23 153.444C420.23 153.772 420.407 154.037 420.625 154.037Z" fill="#D9D9D9" fill-opacity="0.5"/>
<path d="M528.053 171.815C528.271 171.815 528.448 171.549 528.448 171.222C528.448 170.895 528.271 170.629 528.053 170.629C527.835 170.629 527.658 170.895 527.658 171.222C527.658 171.549 527.835 171.815 528.053 171.815Z" fill="#D9D9D9" fill-opacity="0.5"/>
<path d="M498.036 1.14823C498.254 1.14823 498.431 0.882945 498.431 0.555665C498.431 0.228385 498.254 -0.0369873 498.036 -0.0369873C497.818 -0.0369873 497.641 0.228385 497.641 0.555665C497.641 0.882945 497.818 1.14823 498.036 1.14823Z" fill="#D9D9D9" fill-opacity="0.5"/>
<path d="M646.539 16.5553C646.757 16.5553 646.933 16.29 646.933 15.9627C646.933 15.6354 646.757 15.3701 646.539 15.3701C646.32 15.3701 646.144 15.6354 646.144 15.9627C646.144 16.29 646.32 16.5553 646.539 16.5553Z" fill="#D9D9D9" fill-opacity="0.5"/>
<path d="M474.339 81.7411C474.557 81.7411 474.734 81.4758 474.734 81.1485C474.734 80.8212 474.557 80.5559 474.339 80.5559C474.121 80.5559 473.944 80.8212 473.944 81.1485C473.944 81.4758 474.121 81.7411 474.339 81.7411Z" fill="#D9D9D9" fill-opacity="0.5"/>
<path d="M498.826 190.778C499.044 190.778 499.221 190.513 499.221 190.185C499.221 189.858 499.044 189.593 498.826 189.593C498.608 189.593 498.431 189.858 498.431 190.185C498.431 190.513 498.608 190.778 498.826 190.778Z" fill="#D9D9D9" fill-opacity="0.1"/>
<path d="M604.674 180.112C604.892 180.112 605.069 179.846 605.069 179.519C605.069 179.192 604.892 178.927 604.674 178.927C604.456 178.927 604.279 179.192 604.279 179.519C604.279 179.846 604.456 180.112 604.674 180.112Z" fill="#D9D9D9" fill-opacity="0.1"/>
<path d="M670.236 181.296C670.454 181.296 670.631 181.031 670.631 180.704C670.631 180.376 670.454 180.111 670.236 180.111C670.018 180.111 669.841 180.376 669.841 180.704C669.841 181.031 670.018 181.296 670.236 181.296Z" fill="#D9D9D9" fill-opacity="0.1"/>
<path d="M836.116 145.741C836.334 145.741 836.511 145.476 836.511 145.148C836.511 144.821 836.334 144.556 836.116 144.556C835.898 144.556 835.721 144.821 835.721 145.148C835.721 145.476 835.898 145.741 836.116 145.741Z" fill="#D9D9D9" fill-opacity="0.5"/>
<path d="M769.764 162.333C769.982 162.333 770.159 162.067 770.159 161.74C770.159 161.413 769.982 161.147 769.764 161.147C769.546 161.147 769.369 161.413 769.369 161.74C769.369 162.067 769.546 162.333 769.764 162.333Z" fill="#D9D9D9" fill-opacity="0.5"/>
<path d="M791.881 180.112C792.099 180.112 792.276 179.846 792.276 179.519C792.276 179.192 792.099 178.927 791.881 178.927C791.663 178.927 791.486 179.192 791.486 179.519C791.486 179.846 791.663 180.112 791.881 180.112Z" fill="#D9D9D9" fill-opacity="0.5"/>
<path d="M714.471 162.333C714.689 162.333 714.866 162.067 714.866 161.74C714.866 161.413 714.689 161.147 714.471 161.147C714.253 161.147 714.076 161.413 714.076 161.74C714.076 162.067 714.253 162.333 714.471 162.333Z" fill="#D9D9D9" fill-opacity="0.5"/>
<path d="M682.874 63.9623C683.093 63.9623 683.269 63.697 683.269 63.3698C683.269 63.0425 683.093 62.7771 682.874 62.7771C682.656 62.7771 682.479 63.0425 682.479 63.3698C682.479 63.697 682.656 63.9623 682.874 63.9623Z" fill="#D9D9D9" fill-opacity="0.5"/>
<path d="M588.085 31.9623C588.304 31.9623 588.48 31.697 588.48 31.3698C588.48 31.0425 588.304 30.7771 588.085 30.7771C587.867 30.7771 587.69 31.0425 587.69 31.3698C587.69 31.697 587.867 31.9623 588.085 31.9623Z" fill="#D9D9D9" fill-opacity="0.5"/>
<path d="M532.792 95.9623C533.01 95.9623 533.187 95.697 533.187 95.3698C533.187 95.0425 533.01 94.7771 532.792 94.7771C532.574 94.7771 532.397 95.0425 532.397 95.3698C532.397 95.697 532.574 95.9623 532.792 95.9623Z" fill="#D9D9D9" fill-opacity="0.5"/>
<path d="M475.129 170.63C475.347 170.63 475.524 170.365 475.524 170.037C475.524 169.71 475.347 169.445 475.129 169.445C474.911 169.445 474.734 169.71 474.734 170.037C474.734 170.365 474.911 170.63 475.129 170.63Z" fill="#D9D9D9" fill-opacity="0.5"/>
<path d="M441.163 94.7778C441.381 94.7778 441.558 94.5125 441.558 94.1852C441.558 93.8579 441.381 93.5927 441.163 93.5927C440.945 93.5927 440.768 93.8579 440.768 94.1852C440.768 94.5125 440.945 94.7778 441.163 94.7778Z" fill="#D9D9D9" fill-opacity="0.5"/>
<path d="M520.154 45.0003C520.372 45.0003 520.549 44.735 520.549 44.4077C520.549 44.0804 520.372 43.8151 520.154 43.8151C519.936 43.8151 519.759 44.0804 519.759 44.4077C519.759 44.735 519.936 45.0003 520.154 45.0003Z" fill="#D9D9D9" fill-opacity="0.5"/>
<path d="M772.134 7.07351C773.225 7.07351 774.109 5.7469 774.109 4.11051C774.109 2.47411 773.225 1.14758 772.134 1.14758C771.043 1.14758 770.159 2.47411 770.159 4.11051C770.159 5.7469 771.043 7.07351 772.134 7.07351Z" fill="#D9D9D9" fill-opacity="0.1"/>
<path d="M636.27 113.741C636.924 113.741 637.455 112.945 637.455 111.963C637.455 110.981 636.924 110.185 636.27 110.185C635.615 110.185 635.085 110.981 635.085 111.963C635.085 112.945 635.615 113.741 636.27 113.741Z" fill="#D9D9D9" fill-opacity="0.5"/>
<path d="M577.027 182.481C577.681 182.481 578.212 181.685 578.212 180.704C578.212 179.722 577.681 178.926 577.027 178.926C576.372 178.926 575.842 179.722 575.842 180.704C575.842 181.685 576.372 182.481 577.027 182.481Z" fill="#D9D9D9" fill-opacity="0.5"/>
<path d="M418.651 183.667C419.087 183.667 419.441 183.136 419.441 182.482C419.441 181.827 419.087 181.297 418.651 181.297C418.214 181.297 417.861 181.827 417.861 182.482C417.861 183.136 418.214 183.667 418.651 183.667Z" fill="#D9D9D9" fill-opacity="0.1"/>
<path d="M522.128 124.407C523.001 124.407 523.708 123.346 523.708 122.037C523.708 120.727 523.001 119.666 522.128 119.666C521.256 119.666 520.548 120.727 520.548 122.037C520.548 123.346 521.256 124.407 522.128 124.407Z" fill="#D9D9D9" fill-opacity="0.1"/>
<path d="M846.385 144.555C847.476 144.555 848.36 143.229 848.36 141.592C848.36 139.956 847.476 138.629 846.385 138.629C845.294 138.629 844.41 139.956 844.41 141.592C844.41 143.229 845.294 144.555 846.385 144.555Z" fill="#D9D9D9" fill-opacity="0.1"/>
<path d="M563.994 15.3711C564.43 15.3711 564.783 14.8404 564.783 14.1859C564.783 13.5313 564.43 13.0007 563.994 13.0007C563.557 13.0007 563.204 13.5313 563.204 14.1859C563.204 14.8404 563.557 15.3711 563.994 15.3711Z" fill="#D9D9D9" fill-opacity="0.5"/>
</g>
</g>
<defs>
<linearGradient id="paint0_linear_329_4377" x1="441.5" y1="188.419" x2="441.5" y2="-61.6867" gradientUnits="userSpaceOnUse">
<stop offset="0.215327" stop-color="#17181F"/>
<stop offset="0.579541" stop-color="#1E1A31" stop-opacity="0.3"/>
</linearGradient>
<clipPath id="clip0_329_4377">
<rect width="883" height="193" fill="white"/>
</clipPath>
<clipPath id="clip1_329_4377">
<rect width="1440" height="1024" fill="white"/>
</clipPath>
<clipPath id="clip2_329_4377">
<rect width="1440" height="1024" fill="white" transform="translate(0 -819)"/>
</clipPath>
</defs>
</svg>
