<svg width="55" height="51" viewBox="0 0 55 51" fill="none" xmlns="http://www.w3.org/2000/svg">
<rect x="0.69043" y="0.929688" width="54" height="50" rx="4" fill="#C9C9C9"/>
<g clip-path="url(#clip0_923_20571)">
<path d="M34.0654 13.9297H21.3154C18.2088 13.9297 15.6904 16.4481 15.6904 19.5547V32.3047C15.6904 35.4113 18.2088 37.9297 21.3154 37.9297H34.0654C37.172 37.9297 39.6904 35.4113 39.6904 32.3047V19.5547C39.6904 16.4481 37.172 13.9297 34.0654 13.9297Z" fill="#5865F2"/>
<mask id="mask0_923_20571" style="mask-type:luminance" maskUnits="userSpaceOnUse" x="18" y="18" width="20" height="16">
<path d="M18.3154 18.7109H37.0654V33.2356H18.3154V18.7109Z" fill="white"/>
</mask>
<g mask="url(#mask0_923_20571)">
<path d="M34.188 20.005C32.9724 19.4471 31.6895 19.0492 30.3715 18.8213C30.3596 18.8191 30.3472 18.8207 30.3362 18.8259C30.3252 18.8311 30.3161 18.8397 30.3102 18.8503C30.1454 19.1434 29.9628 19.5259 29.835 19.8264C28.3938 19.6106 26.9601 19.6106 25.5485 19.8264C25.4206 19.5191 25.2314 19.1434 25.0658 18.8503C25.0597 18.8398 25.0506 18.8314 25.0396 18.8263C25.0287 18.8211 25.0164 18.8193 25.0044 18.8213C23.6863 19.0487 22.4034 19.4466 21.188 20.005C21.1776 20.0095 21.1689 20.0171 21.1628 20.0266C18.7321 23.6581 18.0663 27.2004 18.3929 30.6987C18.3949 30.716 18.4037 30.7318 18.4173 30.7426C20.021 31.9204 21.5745 32.6354 23.0992 33.1093C23.111 33.1128 23.1237 33.1126 23.1354 33.1088C23.1472 33.1049 23.1575 33.0976 23.165 33.0878C23.5256 32.5952 23.8471 32.0759 24.1228 31.5298C24.1266 31.5223 24.1288 31.5141 24.1292 31.5058C24.1296 31.4974 24.1282 31.489 24.1251 31.4812C24.122 31.4734 24.1173 31.4663 24.1113 31.4605C24.1053 31.4546 24.0982 31.4501 24.0903 31.4472C23.5803 31.2537 23.0947 31.0179 22.6277 30.7501C22.6192 30.7451 22.612 30.7381 22.6069 30.7296C22.6017 30.7212 22.5987 30.7117 22.5982 30.7018C22.5976 30.6919 22.5994 30.6821 22.6035 30.6731C22.6077 30.6642 22.6139 30.6563 22.6218 30.6504C22.7203 30.5767 22.8172 30.5008 22.9122 30.4227C22.9205 30.4159 22.9306 30.4115 22.9413 30.41C22.952 30.4085 22.9629 30.4101 22.9728 30.4145C26.0414 31.8155 29.3634 31.8155 32.3958 30.4145C32.4057 30.4098 32.4167 30.4081 32.4276 30.4094C32.4384 30.4107 32.4487 30.4151 32.4572 30.422C32.5524 30.5005 32.6494 30.5766 32.7484 30.6504C32.7563 30.6563 32.7626 30.664 32.7668 30.673C32.7709 30.6819 32.7729 30.6917 32.7724 30.7016C32.7718 30.7115 32.7689 30.721 32.7638 30.7295C32.7588 30.7379 32.7517 30.745 32.7432 30.7501C32.2759 31.023 31.7864 31.2559 31.2799 31.4465C31.272 31.4495 31.2649 31.4542 31.259 31.4601C31.253 31.4661 31.2484 31.4732 31.2454 31.4811C31.2424 31.4889 31.2411 31.4973 31.2416 31.5057C31.242 31.5141 31.2443 31.5223 31.2481 31.5298C31.5286 32.0716 31.8484 32.5921 32.2051 33.087C32.2124 33.0971 32.2226 33.1047 32.2344 33.1087C32.2462 33.1127 32.259 33.1129 32.2709 33.1093C33.803 32.6354 35.3565 31.9204 36.9603 30.7426C36.9671 30.7375 36.9728 30.7311 36.977 30.7236C36.9812 30.7162 36.9838 30.708 36.9847 30.6995C37.3756 26.655 36.3298 23.1417 34.2124 20.0274C34.2072 20.0172 34.1986 20.0093 34.188 20.005ZM24.5811 28.5686C23.6572 28.5686 22.8959 27.7205 22.8959 26.6788C22.8959 25.6372 23.6424 24.789 24.5811 24.789C25.527 24.789 26.2808 25.6447 26.266 26.6788C26.266 27.7205 25.5196 28.5686 24.5811 28.5686ZM30.8113 28.5686C29.8874 28.5686 29.1262 27.7205 29.1262 26.6788C29.1262 25.6372 29.8727 24.789 30.8113 24.789C31.7572 24.789 32.5111 25.6447 32.4964 26.6788C32.4964 27.7205 31.7572 28.5686 30.8113 28.5686Z" fill="white"/>
</g>
</g>
<defs>
<clipPath id="clip0_923_20571">
<rect width="24" height="24" fill="white" transform="translate(15.6904 13.9297)"/>
</clipPath>
</defs>
</svg>
