<svg width="21" height="17" viewBox="0 0 21 17" fill="none" xmlns="http://www.w3.org/2000/svg">
<path d="M17.7643 1.90959C16.4343 1.28959 14.9943 0.83959 13.4943 0.57959C13.4679 0.579966 13.4427 0.590749 13.4243 0.60959C13.2443 0.93959 13.0343 1.36959 12.8943 1.69959C11.3032 1.45974 9.68527 1.45974 8.09426 1.69959C7.95426 1.35959 7.74426 0.93959 7.55426 0.60959C7.54426 0.58959 7.51426 0.57959 7.48426 0.57959C5.98426 0.83959 4.55426 1.28959 3.21426 1.90959C3.20426 1.90959 3.19426 1.91959 3.18426 1.92959C0.464258 5.99959 -0.285742 9.95959 0.0842578 13.8796C0.0842578 13.8996 0.0942578 13.9196 0.114258 13.9296C1.91426 15.2496 3.64426 16.0496 5.35426 16.5796C5.38426 16.5896 5.41426 16.5796 5.42426 16.5596C5.82426 16.0096 6.18426 15.4296 6.49426 14.8196C6.51426 14.7796 6.49426 14.7396 6.45426 14.7296C5.88426 14.5096 5.34426 14.2496 4.81426 13.9496C4.77426 13.9296 4.77426 13.8696 4.80426 13.8396C4.91426 13.7596 5.02426 13.6696 5.13426 13.5896C5.15426 13.5696 5.18426 13.5696 5.20426 13.5796C8.64426 15.1496 12.3543 15.1496 15.7543 13.5796C15.7743 13.5696 15.8043 13.5696 15.8243 13.5896C15.9343 13.6796 16.0443 13.7596 16.1543 13.8496C16.1943 13.8796 16.1943 13.9396 16.1443 13.9596C15.6243 14.2696 15.0743 14.5196 14.5043 14.7396C14.4643 14.7496 14.4543 14.7996 14.4643 14.8296C14.7843 15.4396 15.1443 16.0196 15.5343 16.5696C15.5643 16.5796 15.5943 16.5896 15.6243 16.5796C17.3443 16.0496 19.0743 15.2496 20.8743 13.9296C20.8943 13.9196 20.9043 13.8996 20.9043 13.8796C21.3443 9.34959 20.1743 5.41959 17.8043 1.92959C17.7943 1.91959 17.7843 1.90959 17.7643 1.90959ZM7.01426 11.4896C5.98426 11.4896 5.12426 10.5396 5.12426 9.36959C5.12426 8.19959 5.96426 7.24959 7.01426 7.24959C8.07426 7.24959 8.91426 8.20959 8.90426 9.36959C8.90426 10.5396 8.06426 11.4896 7.01426 11.4896ZM13.9843 11.4896C12.9543 11.4896 12.0943 10.5396 12.0943 9.36959C12.0943 8.19959 12.9343 7.24959 13.9843 7.24959C15.0443 7.24959 15.8843 8.20959 15.8743 9.36959C15.8743 10.5396 15.0443 11.4896 13.9843 11.4896Z" fill="#A44AFB"/>
</svg>
