<svg width="25" height="25" viewBox="0 0 25 25" fill="none" xmlns="http://www.w3.org/2000/svg">
<g clip-path="url(#clip0_923_20398)">
<path d="M18.7939 0.320312H6.04395C2.93734 0.320312 0.418945 2.83871 0.418945 5.94531V18.6953C0.418945 21.8019 2.93734 24.3203 6.04395 24.3203H18.7939C21.9005 24.3203 24.4189 21.8019 24.4189 18.6953V5.94531C24.4189 2.83871 21.9005 0.320312 18.7939 0.320312Z" fill="#5865F2"/>
<mask id="mask0_923_20398" style="mask-type:luminance" maskUnits="userSpaceOnUse" x="3" y="5" width="19" height="15">
<path d="M3.04395 5.10156H21.7939V19.6262H3.04395V5.10156Z" fill="white"/>
</mask>
<g mask="url(#mask0_923_20398)">
<path d="M18.9165 6.39566C17.7009 5.83773 16.418 5.43982 15.1 5.21188C15.0881 5.2097 15.0757 5.21133 15.0647 5.21654C15.0537 5.22175 15.0446 5.23029 15.0387 5.24095C14.8739 5.53401 14.6913 5.91651 14.5635 6.21707C13.1223 6.00126 11.6886 6.00126 10.277 6.21707C10.1491 5.90976 9.95992 5.53401 9.79436 5.24095C9.78826 5.23046 9.77912 5.22207 9.76816 5.21689C9.7572 5.2117 9.74492 5.20995 9.73295 5.21188C8.41484 5.4393 7.13192 5.83723 5.91648 6.39566C5.90613 6.40017 5.89738 6.40768 5.89136 6.41723C3.46061 10.0487 2.79479 13.591 3.12142 17.0894C3.12341 17.1066 3.13218 17.1224 3.14579 17.1332C4.74948 18.311 6.30301 19.026 7.82767 19.4999C7.83953 19.5035 7.85218 19.5033 7.86394 19.4994C7.87569 19.4956 7.886 19.4882 7.89348 19.4784C8.25414 18.9858 8.57561 18.4665 8.85133 17.9204C8.85512 17.913 8.85729 17.9048 8.85769 17.8964C8.85808 17.888 8.8567 17.8796 8.85362 17.8718C8.85055 17.864 8.84586 17.857 8.83985 17.8511C8.83385 17.8453 8.82667 17.8407 8.81879 17.8379C8.30879 17.6444 7.82326 17.4086 7.3562 17.1407C7.34769 17.1357 7.34055 17.1287 7.3354 17.1203C7.33025 17.1118 7.32725 17.1023 7.32667 17.0924C7.32608 17.0826 7.32793 17.0727 7.33205 17.0637C7.33617 17.0548 7.34244 17.047 7.35029 17.041C7.44883 16.9673 7.54567 16.8914 7.64073 16.8134C7.64906 16.8065 7.65914 16.8021 7.66984 16.8006C7.68054 16.7992 7.69143 16.8007 7.70129 16.8051C10.7699 18.2061 14.0919 18.2061 17.1243 16.8051C17.1342 16.8004 17.1452 16.7987 17.1561 16.8C17.1669 16.8013 17.1772 16.8057 17.1857 16.8126C17.2809 16.8911 17.378 16.9673 17.4769 17.041C17.4848 17.0469 17.4911 17.0547 17.4953 17.0636C17.4995 17.0725 17.5014 17.0824 17.5009 17.0922C17.5004 17.1021 17.4974 17.1117 17.4924 17.1201C17.4873 17.1286 17.4802 17.1356 17.4717 17.1407C17.0044 17.4136 16.5149 17.6466 16.0084 17.8371C16.0005 17.8401 15.9934 17.8448 15.9875 17.8507C15.9815 17.8567 15.9769 17.8638 15.9739 17.8717C15.9709 17.8796 15.9696 17.888 15.9701 17.8964C15.9705 17.9048 15.9728 17.913 15.9766 17.9204C16.2571 18.4622 16.5769 18.9827 16.9336 19.4776C16.9409 19.4877 16.9512 19.4953 16.963 19.4993C16.9747 19.5033 16.9875 19.5035 16.9994 19.4999C18.5315 19.026 20.085 18.311 21.6888 17.1332C21.6956 17.1281 21.7014 17.1217 21.7056 17.1143C21.7098 17.1068 21.7124 17.0986 21.7132 17.0901C22.1041 13.0456 21.0583 9.53235 18.9409 6.41798C18.9357 6.40783 18.9271 6.3999 18.9165 6.39566ZM9.30958 14.9593C8.38567 14.9593 7.62442 14.1111 7.62442 13.0694C7.62442 12.0278 8.37095 11.1796 9.30958 11.1796C10.2555 11.1796 11.0094 12.0353 10.9945 13.0694C10.9945 14.1111 10.2481 14.9593 9.30958 14.9593ZM15.5398 14.9593C14.6159 14.9593 13.8548 14.1111 13.8548 13.0694C13.8548 12.0278 14.6012 11.1796 15.5398 11.1796C16.4858 11.1796 17.2396 12.0353 17.2249 13.0694C17.2249 14.1111 16.4858 14.9593 15.5398 14.9593Z" fill="white"/>
</g>
</g>
<defs>
<clipPath id="clip0_923_20398">
<rect width="24" height="24" fill="white" transform="translate(0.418945 0.320312)"/>
</clipPath>
</defs>
</svg>
