<svg width="25" height="25" viewBox="0 0 25 25" fill="none" xmlns="http://www.w3.org/2000/svg">
<g clip-path="url(#clip0_923_20392)">
<path d="M24.4189 12.3203C24.4189 5.69294 19.0463 0.320312 12.4189 0.320312C5.79157 0.320312 0.418945 5.69294 0.418945 12.3203C0.418945 18.3098 4.8072 23.2743 10.5439 24.1745V15.7891H7.49707V12.3203H10.5439V9.67656C10.5439 6.66906 12.3355 5.00781 15.0766 5.00781C16.3894 5.00781 17.7627 5.24219 17.7627 5.24219V8.19531H16.2496C14.7589 8.19531 14.2939 9.12034 14.2939 10.0694V12.3203H17.6221L17.09 15.7891H14.2939V24.1745C20.0307 23.2743 24.4189 18.3099 24.4189 12.3203Z" fill="#1877F2"/>
<path d="M17.09 15.7891L17.6221 12.3203H14.2939V10.0694C14.2939 9.12025 14.7589 8.19531 16.2496 8.19531H17.7627V5.24219C17.7627 5.24219 16.3894 5.00781 15.0765 5.00781C12.3355 5.00781 10.5439 6.66906 10.5439 9.67656V12.3203H7.49707V15.7891H10.5439V24.1745C11.1642 24.2717 11.7911 24.3205 12.4189 24.3203C13.0468 24.3205 13.6737 24.2717 14.2939 24.1745V15.7891H17.09Z" fill="white"/>
</g>
<defs>
<clipPath id="clip0_923_20392">
<rect width="24" height="24" fill="white" transform="translate(0.418945 0.320312)"/>
</clipPath>
</defs>
</svg>
