<svg width="25" height="25" viewBox="0 0 25 25" fill="none" xmlns="http://www.w3.org/2000/svg">
<g clip-path="url(#clip0_923_20385)">
<path d="M18.7939 0.320312H6.04395C2.93734 0.320312 0.418945 2.83871 0.418945 5.94531V18.6953C0.418945 21.8019 2.93734 24.3203 6.04395 24.3203H18.7939C21.9005 24.3203 24.4189 21.8019 24.4189 18.6953V5.94531C24.4189 2.83871 21.9005 0.320312 18.7939 0.320312Z" fill="url(#paint0_radial_923_20385)"/>
<path d="M18.7939 0.320312H6.04395C2.93734 0.320312 0.418945 2.83871 0.418945 5.94531V18.6953C0.418945 21.8019 2.93734 24.3203 6.04395 24.3203H18.7939C21.9005 24.3203 24.4189 21.8019 24.4189 18.6953V5.94531C24.4189 2.83871 21.9005 0.320312 18.7939 0.320312Z" fill="url(#paint1_radial_923_20385)"/>
<path d="M12.4198 2.94531C9.87373 2.94531 9.55413 2.95647 8.5542 3.00194C7.55613 3.04769 6.87485 3.20566 6.27879 3.4375C5.6621 3.67694 5.13907 3.99728 4.61801 4.51853C4.09648 5.03969 3.77613 5.56272 3.53595 6.17912C3.30345 6.77537 3.14529 7.45694 3.10038 8.45453C3.05566 9.45456 3.04395 9.77425 3.04395 12.3204C3.04395 14.8666 3.0552 15.1851 3.10057 16.1851C3.14651 17.1831 3.30448 17.8644 3.53613 18.4605C3.77576 19.0772 4.0961 19.6002 4.61735 20.1213C5.13832 20.6428 5.66135 20.9639 6.27757 21.2033C6.8741 21.4352 7.55548 21.5931 8.55335 21.6389C9.55338 21.6843 9.8727 21.6955 12.4187 21.6955C14.965 21.6955 15.2836 21.6843 16.2835 21.6389C17.2816 21.5931 17.9636 21.4352 18.5601 21.2033C19.1765 20.9639 19.6988 20.6428 20.2197 20.1213C20.7412 19.6002 21.0615 19.0772 21.3018 18.4608C21.5322 17.8644 21.6904 17.1829 21.7373 16.1852C21.7822 15.1853 21.7939 14.8666 21.7939 12.3204C21.7939 9.77425 21.7822 9.45475 21.7373 8.45472C21.6904 7.45666 21.5322 6.77547 21.3018 6.17941C21.0615 5.56272 20.7412 5.03969 20.2197 4.51853C19.6983 3.99709 19.1767 3.67675 18.5596 3.43759C17.9619 3.20566 17.2803 3.04759 16.2822 3.00194C15.2822 2.95647 14.9638 2.94531 12.4169 2.94531H12.4198ZM11.5788 4.63478C11.8284 4.63441 12.1069 4.63478 12.4198 4.63478C14.923 4.63478 15.2196 4.64378 16.2081 4.68869C17.1222 4.7305 17.6183 4.88322 17.9488 5.01156C18.3863 5.18144 18.6982 5.38459 19.0262 5.71281C19.3543 6.04094 19.5574 6.35341 19.7277 6.79094C19.856 7.12094 20.0089 7.61706 20.0506 8.53113C20.0955 9.51944 20.1052 9.81625 20.1052 12.3182C20.1052 14.8202 20.0955 15.1172 20.0506 16.1054C20.0088 17.0194 19.856 17.5156 19.7277 17.8457C19.5578 18.2832 19.3543 18.5947 19.0262 18.9227C18.698 19.2508 18.3865 19.4538 17.9488 19.6238C17.6187 19.7527 17.1222 19.9051 16.2081 19.9469C15.2198 19.9918 14.923 20.0015 12.4198 20.0015C9.91648 20.0015 9.61976 19.9918 8.63154 19.9469C7.71748 19.9047 7.22135 19.752 6.8906 19.6236C6.45316 19.4537 6.1406 19.2506 5.81248 18.9225C5.48435 18.5943 5.28129 18.2826 5.11095 17.8449C4.9826 17.5148 4.8297 17.0187 4.78807 16.1046C4.74316 15.1163 4.73416 14.8195 4.73416 12.3159C4.73416 9.81231 4.74316 9.51709 4.78807 8.52878C4.82988 7.61472 4.9826 7.11859 5.11095 6.78812C5.28091 6.35059 5.48435 6.03813 5.81257 5.71C6.14079 5.38188 6.45316 5.17872 6.8907 5.00847C7.22116 4.87956 7.71748 4.72722 8.63154 4.68522C9.49638 4.64612 9.83154 4.63441 11.5788 4.63244V4.63478ZM17.4242 6.19141C16.8031 6.19141 16.2992 6.69484 16.2992 7.31603C16.2992 7.93713 16.8031 8.44103 17.4242 8.44103C18.0453 8.44103 18.5492 7.93713 18.5492 7.31603C18.5492 6.69494 18.0453 6.19103 17.4242 6.19103V6.19141ZM12.4198 7.50588C9.76104 7.50588 7.60535 9.66156 7.60535 12.3204C7.60535 14.9793 9.76104 17.1339 12.4198 17.1339C15.0786 17.1339 17.2336 14.9793 17.2336 12.3204C17.2336 9.66166 15.0784 7.50588 12.4196 7.50588H12.4198ZM12.4198 9.19534C14.1456 9.19534 15.5449 10.5944 15.5449 12.3204C15.5449 14.0463 14.1456 15.4455 12.4198 15.4455C10.6939 15.4455 9.29482 14.0463 9.29482 12.3204C9.29482 10.5944 10.6939 9.19534 12.4198 9.19534Z" fill="white"/>
</g>
<defs>
<radialGradient id="paint0_radial_923_20385" cx="0" cy="0" r="1" gradientUnits="userSpaceOnUse" gradientTransform="translate(6.79395 26.1688) rotate(-90) scale(23.7858 22.1227)">
<stop stop-color="#FFDD55"/>
<stop offset="0.1" stop-color="#FFDD55"/>
<stop offset="0.5" stop-color="#FF543E"/>
<stop offset="1" stop-color="#C837AB"/>
</radialGradient>
<radialGradient id="paint1_radial_923_20385" cx="0" cy="0" r="1" gradientUnits="userSpaceOnUse" gradientTransform="translate(-3.60115 2.04916) rotate(78.681) scale(10.6324 43.827)">
<stop stop-color="#3771C8"/>
<stop offset="0.128" stop-color="#3771C8"/>
<stop offset="1" stop-color="#6600FF" stop-opacity="0"/>
</radialGradient>
<clipPath id="clip0_923_20385">
<rect width="24" height="24" fill="white" transform="translate(0.418945 0.320312)"/>
</clipPath>
</defs>
</svg>
