<svg width="25" height="25" viewBox="0 0 25 25" fill="none" xmlns="http://www.w3.org/2000/svg">
<mask id="mask0_1150_4162" style="mask-type:alpha" maskUnits="userSpaceOnUse" x="0" y="0" width="25" height="25">
<rect x="0.864258" y="0.195312" width="24" height="24" fill="#D9D9D9"/>
</mask>
<g mask="url(#mask0_1150_4162)">
<path d="M4.86426 19.1953V17.1953H6.86426V10.1953C6.86426 8.81198 7.28092 7.58281 8.11426 6.50781C8.94759 5.43281 10.0309 4.72865 11.3643 4.39531V3.69531C11.3643 3.27865 11.5101 2.92448 11.8018 2.63281C12.0934 2.34115 12.4476 2.19531 12.8643 2.19531C13.2809 2.19531 13.6351 2.34115 13.9268 2.63281C14.2184 2.92448 14.3643 3.27865 14.3643 3.69531V4.39531C15.6976 4.72865 16.7809 5.43281 17.6143 6.50781C18.4476 7.58281 18.8643 8.81198 18.8643 10.1953V17.1953H20.8643V19.1953H4.86426ZM12.8643 22.1953C12.3143 22.1953 11.8434 21.9995 11.4518 21.6078C11.0601 21.2161 10.8643 20.7453 10.8643 20.1953H14.8643C14.8643 20.7453 14.6684 21.2161 14.2768 21.6078C13.8851 21.9995 13.4143 22.1953 12.8643 22.1953ZM8.86426 17.1953H16.8643V10.1953C16.8643 9.09531 16.4726 8.15365 15.6893 7.37031C14.9059 6.58698 13.9643 6.19531 12.8643 6.19531C11.7643 6.19531 10.8226 6.58698 10.0393 7.37031C9.25592 8.15365 8.86426 9.09531 8.86426 10.1953V17.1953Z" fill="white"/>
<circle cx="17.8643" cy="6.19531" r="3.5" fill="#FF0000" stroke="#17191A"/>
</g>
</svg>
