<svg width="55" height="51" viewBox="0 0 55 51" fill="none" xmlns="http://www.w3.org/2000/svg">
<rect x="0.69043" y="0.929688" width="54" height="50" rx="4" fill="#C9C9C9"/>
<g clip-path="url(#clip0_923_20589)">
<path d="M28.1149 14.3203C21.8021 14.3203 16.6307 19.177 16.1396 25.3486L22.5804 28.0057C23.1427 27.6207 23.8107 27.4149 24.4946 27.4158C24.5586 27.4158 24.6217 27.4175 24.684 27.421L27.5486 23.278V23.22C27.5486 20.727 29.5813 18.6983 32.0801 18.6983C34.5788 18.6983 36.6116 20.727 36.6116 23.22C36.6116 25.7129 34.5788 27.7423 32.0801 27.7423C32.0454 27.7423 32.0117 27.7415 31.9772 27.7407L27.8918 30.6482C27.8944 30.7021 27.8961 30.756 27.8961 30.809C27.8961 32.6811 26.37 34.2038 24.4946 34.2038C22.8484 34.2038 21.471 33.0309 21.1598 31.4784L16.5529 29.5778C17.9796 34.6107 22.614 38.3005 28.1149 38.3005C34.7518 38.3005 40.1316 32.9317 40.1316 26.3104C40.1316 19.6883 34.7518 14.3203 28.1149 14.3203ZM23.6701 32.5132L22.1941 31.9046C22.4553 32.4483 22.9084 32.9031 23.5093 33.1528C24.8079 33.693 26.3055 33.0784 26.8468 31.7815C27.1088 31.1579 27.1104 30.457 26.8511 29.8323C26.5917 29.2031 26.1014 28.7123 25.4729 28.4508C24.8478 28.1918 24.1785 28.2011 23.5905 28.4226L25.1158 29.0518C26.0738 29.4502 26.5268 30.5478 26.1274 31.5037C25.7288 32.4594 24.6281 32.9117 23.6701 32.5132ZM35.0997 23.22C35.0997 21.559 33.7448 20.2065 32.0804 20.2065C30.4151 20.2065 29.0602 21.559 29.0602 23.22C29.0602 24.881 30.4151 26.2327 32.0804 26.2327C33.7448 26.2327 35.0997 24.8811 35.0997 23.22ZM29.8168 23.2149C29.8168 21.965 30.8327 20.952 32.0848 20.952C33.3376 20.952 34.3535 21.965 34.3535 23.2149C34.3535 24.4647 33.3376 25.4778 32.0847 25.4778C30.8327 25.4778 29.8167 24.4647 29.8167 23.215" fill="url(#paint0_linear_923_20589)"/>
</g>
<defs>
<linearGradient id="paint0_linear_923_20589" x1="19.1357" y1="14.3203" x2="31.6357" y2="41.3203" gradientUnits="userSpaceOnUse">
<stop offset="0.5" stop-color="#17293E"/>
<stop offset="1" stop-color="#1B89B2"/>
</linearGradient>
<clipPath id="clip0_923_20589">
<rect width="24" height="24" fill="white" transform="translate(16.1357 14.3203)"/>
</clipPath>
</defs>
</svg>
