<svg width="120" height="40" viewBox="0 0 120 40" fill="none" xmlns="http://www.w3.org/2000/svg">
<path d="M31.0336 29.5622C31.0336 29.757 31.1914 29.9148 31.3862 29.9148H34.4579C34.6526 29.9148 34.8105 29.757 34.8105 29.5622V11.3734C34.8105 11.1787 34.6526 11.0208 34.4579 11.0208H31.3862C31.1914 11.0208 31.0336 11.1787 31.0336 11.3734V29.5622ZM25.1265 26.6131C25.1265 26.6036 25.1341 26.596 25.1436 26.596H28.5508C28.7456 26.596 28.9035 26.4381 28.9035 26.2433V14.2037C28.9035 14.009 28.7456 13.851 28.5508 13.851H25.4791C25.2844 13.851 25.1265 14.009 25.1265 14.2037V26.6131ZM19.2193 30.9681C19.2193 30.9642 19.2224 30.9611 19.2262 30.9611H22.6436C22.8384 30.9611 22.9962 30.8032 22.9962 30.6084V9.84785C22.9962 9.65307 22.8384 9.49519 22.6436 9.49519H19.5719C19.3772 9.49519 19.2193 9.65307 19.2193 9.84785V30.9681ZM13.4303 39.9486C13.4302 39.9444 13.4335 39.941 13.4377 39.941H16.8544C17.0492 39.941 17.2071 39.783 17.2071 39.5883V0.352667C17.2071 0.157895 17.0492 0 16.8544 0H13.783C13.5882 0 13.4303 0.157893 13.4303 0.352665V39.9486ZM7.52303 34.7187C7.52303 34.7146 7.52635 34.7114 7.53038 34.7114H10.9473C11.1421 34.7114 11.3001 34.5535 11.3001 34.3587V5.73163C11.3001 5.53686 11.1421 5.37897 10.9473 5.37897H7.87568C7.68091 5.37897 7.52303 5.53686 7.52303 5.73163V34.7187ZM1.47656 28.7035C1.47656 28.8982 1.63446 29.0561 1.82923 29.0561H4.9009C5.09567 29.0561 5.25356 28.8982 5.25356 28.7035V11.7602C5.25356 11.5654 5.09567 11.4075 4.9009 11.4075H1.82923C1.63446 11.4075 1.47656 11.5654 1.47656 11.7602V28.7035Z" fill="#5A189A"/>
<path d="M44.4011 11.8312L36.8322 16.2087C36.7765 16.2409 36.7422 16.3003 36.7422 16.3647V24.6319C36.7422 24.7032 36.7843 24.7679 36.8495 24.7967L44.4184 28.1422C44.5375 28.1949 44.6714 28.1076 44.6714 27.9774V11.9871C44.6714 11.8483 44.5212 11.7616 44.4011 11.8312Z" fill="#5A189A"/>
<path d="M59.9062 23.6789C59.9062 25.9807 58.3535 27.3143 54.919 27.3143C51.0096 27.3143 49 25.5057 49 22.2722H50.6807C50.6807 24.7384 52.1239 25.9076 54.9556 25.9076C57.1843 25.9076 58.2256 25.1952 58.2256 23.7702C58.2256 22.7654 57.5679 21.9982 56.0699 21.6145L52.471 20.6829C50.4433 20.1531 49.6029 18.9839 49.6029 17.4494C49.6029 15.2206 51.2105 14.0332 54.17 14.0332C57.6775 14.0332 59.5226 15.7139 59.5226 18.4906H57.8237C57.8237 16.4446 56.5996 15.4215 54.17 15.4215C52.2883 15.4215 51.2836 16.0609 51.2836 17.3763C51.2836 18.2897 51.8316 18.9839 53.2383 19.3493L56.8006 20.2444C58.8832 20.7742 59.9062 21.9799 59.9062 23.6789ZM66.605 25.7249V27.1133H63.0427C62.1841 27.1133 61.7639 26.7114 61.7639 25.8346V19.4224H59.7544V18.0339H61.7639V15.7321L63.3898 15.2389V18.0339H66.2397V19.4224H63.3898V25.7432L66.605 25.7249ZM67.2919 19.2944C67.2919 18.4358 67.712 18.0339 68.5706 18.0339H73.7043V19.4224H68.9177V27.1133H67.2919V19.2944ZM73.2469 22.4549C73.2469 19.5137 75.0009 17.8513 77.595 17.8513C80.2807 17.8513 82.034 19.4771 82.034 22.2905V22.875H74.8184C74.8734 24.6471 75.805 25.999 77.6866 25.999C79.2391 25.999 80.1524 25.1952 80.4632 23.9346H82.0706C81.7056 25.6153 80.4998 27.296 77.705 27.296C74.7451 27.296 73.2469 25.1403 73.2469 22.4549ZM74.8368 21.7242H80.4449C80.3357 20.08 79.2208 19.13 77.595 19.13C76.0968 19.13 74.9643 20.08 74.8368 21.7242ZM82.6013 24.5923C82.6013 23.1491 83.478 22.1443 85.6337 21.9434L89.1961 21.5963C89.1228 19.9521 88.3736 19.1666 86.7662 19.1666C85.5062 19.1666 84.5562 19.7512 84.4096 21.2674H82.8022C83.003 19.2031 84.3913 17.8513 86.7479 17.8513C89.3969 17.8513 90.8218 19.4771 90.8218 21.8703V25.7249H92.1559V27.1133H90.4934C89.7986 27.1133 89.3969 26.7114 89.3969 26.0172V25.5788L89.6527 24.6105H89.1961C88.8486 25.999 87.8811 27.296 85.6704 27.296C83.003 27.296 82.6013 25.5422 82.6013 24.5923ZM84.2088 24.3914C84.2088 25.4327 84.8846 25.9624 85.9262 25.9624C87.8987 25.9624 89.1961 24.574 89.1961 22.7472L85.9079 23.0943C84.7937 23.2039 84.2088 23.5145 84.2088 24.3914ZM92.57 27.1133V18.0339H94.1965V19.5137L93.9224 20.6098H94.379C94.7441 18.9656 95.6757 17.8513 97.6123 17.8513C99.2747 17.8513 100.115 18.9839 100.335 20.6098H100.626C100.992 18.9656 101.924 17.8513 103.86 17.8513C105.797 17.8513 106.692 19.4041 106.692 21.4684V27.1133H105.066V21.8155C105.066 20.0617 104.682 19.2396 103.239 19.2396C101.467 19.2396 100.444 20.8107 100.444 23.1856V27.1133H98.818V21.8155C98.818 20.0617 98.4347 19.2396 96.9914 19.2396C95.219 19.2396 94.1965 20.8107 94.1965 23.1856V27.1133H92.57ZM112.254 15.0745C111.103 15.0745 110.756 15.7504 110.756 16.9013V18.0339H116.255C117.113 18.0339 117.479 18.4176 117.479 19.2944V25.7249H120V27.1133H107.157V25.7249H109.149V19.4224H107.157V18.0339H109.149V16.883C109.149 14.9648 110.08 13.686 112.327 13.686H116.401V15.0745H112.254ZM110.756 25.7249H115.853V19.4224H110.756V25.7249Z" fill="#5A189A"/>
</svg>
