<svg width="25" height="25" viewBox="0 0 25 25" fill="none" xmlns="http://www.w3.org/2000/svg">
<g clip-path="url(#clip0_923_20410)">
<path d="M12.4189 0.320312C9.23707 0.320312 6.1827 1.58538 3.93457 3.835C1.68414 6.08553 0.419589 9.13766 0.418945 12.3203C0.418945 15.5016 1.68457 18.556 3.93457 20.8056C6.1827 23.0553 9.23707 24.3203 12.4189 24.3203C15.6008 24.3203 18.6552 23.0553 20.9033 20.8056C23.1533 18.556 24.4189 15.5016 24.4189 12.3203C24.4189 9.139 23.1533 6.08463 20.9033 3.835C18.6552 1.58538 15.6008 0.320312 12.4189 0.320312Z" fill="url(#paint0_linear_923_20410)"/>
<path d="M5.84981 12.1924C9.34856 10.6684 11.6811 9.66363 12.8473 9.17813C16.1811 7.79195 16.8729 7.5512 17.3248 7.54304C17.4242 7.54145 17.6454 7.56601 17.7898 7.68273C17.9098 7.78116 17.9436 7.91429 17.9604 8.00776C17.9754 8.10113 17.9961 8.31395 17.9792 8.48007C17.7992 10.3776 17.0173 14.9822 16.6198 17.1075C16.4529 18.0068 16.1211 18.3083 15.8004 18.3377C15.1029 18.4018 14.5742 17.8772 13.8992 17.4349C12.8436 16.7424 12.2473 16.3116 11.2217 15.636C10.0367 14.8553 10.8054 14.4261 11.4804 13.7248C11.6567 13.5413 14.7279 10.7484 14.7861 10.4951C14.7936 10.4634 14.8011 10.3453 14.7298 10.2831C14.6604 10.2206 14.5573 10.242 14.4823 10.2589C14.3754 10.2829 12.6898 11.3981 9.41981 13.6044C8.94169 13.9333 8.50856 14.0936 8.11856 14.0852C7.69106 14.076 6.86606 13.8429 6.25294 13.6438C5.50294 13.3995 4.90481 13.2703 4.95731 12.8554C4.98356 12.6394 5.28169 12.4183 5.84981 12.1924Z" fill="white"/>
</g>
<defs>
<linearGradient id="paint0_linear_923_20410" x1="1200.42" y1="0.320312" x2="1200.42" y2="2400.32" gradientUnits="userSpaceOnUse">
<stop stop-color="#2AABEE"/>
<stop offset="1" stop-color="#229ED9"/>
</linearGradient>
<clipPath id="clip0_923_20410">
<rect width="24" height="24" fill="white" transform="translate(0.418945 0.320312)"/>
</clipPath>
</defs>
</svg>
