<svg width="22" height="25" viewBox="0 0 22 25" fill="none" xmlns="http://www.w3.org/2000/svg">
<g clip-path="url(#clip0_923_20406)">
<path d="M15.9822 8.96148C17.5141 10.0659 19.3909 10.7157 21.4177 10.7157V6.7822C21.0341 6.78235 20.6515 6.74196 20.2762 6.6617V9.75795C18.2495 9.75795 16.3731 9.10821 14.8408 8.00388V16.0311C14.8408 20.0468 11.613 23.3019 7.63156 23.3019C6.146 23.3019 4.76517 22.849 3.61816 22.0721C4.92731 23.4221 6.753 24.2596 8.77274 24.2596C12.7545 24.2596 15.9824 21.0045 15.9824 16.9887V8.96148H15.9822ZM17.3905 4.99304C16.6075 4.13045 16.0935 3.01569 15.9822 1.78325V1.27734H14.9005C15.1728 2.84372 16.1017 4.18192 17.3905 4.99304ZM6.1364 18.9907C5.69895 18.4123 5.46251 17.7047 5.46362 16.9771C5.46362 15.1406 6.94 13.6514 8.7615 13.6514C9.10091 13.6512 9.43832 13.7038 9.76186 13.8072V9.78576C9.38376 9.73354 9.00222 9.71128 8.62085 9.71947V12.8496C8.29714 12.7461 7.95956 12.6935 7.62 12.6938C5.79857 12.6938 4.32228 14.1828 4.32228 16.0196C4.32228 17.3184 5.06018 18.4429 6.1364 18.9907Z" fill="#FF004F"/>
<path d="M14.8408 8.0038C16.3731 9.10813 18.2494 9.75787 20.2762 9.75787V6.66162C19.1449 6.41856 18.1434 5.82236 17.3904 4.99304C16.1015 4.18184 15.1728 2.84363 14.9005 1.27734H12.0592V16.9885C12.0527 18.8201 10.5789 20.3031 8.76133 20.3031C7.69036 20.3031 6.7388 19.7883 6.13623 18.9906C5.06017 18.4429 4.32219 17.3184 4.32219 16.0197C4.32219 14.1831 5.79848 12.6939 7.61991 12.6939C7.96889 12.6939 8.30524 12.7487 8.62076 12.8496V9.71955C4.70922 9.80107 1.56348 13.0244 1.56348 16.9886C1.56348 18.9675 2.34682 20.7615 3.61824 22.0723C4.76524 22.849 6.14599 23.3021 7.63164 23.3021C11.6131 23.3021 14.8409 20.0467 14.8409 16.0311L14.8408 8.0038Z" fill="black"/>
<path d="M20.2731 6.66211V5.82508C19.2529 5.82658 18.2529 5.53844 17.3873 4.99361C18.1535 5.83958 19.1624 6.42296 20.2731 6.66227M14.8973 1.27783C14.8714 1.12817 14.8515 0.977505 14.8376 0.826216V0.320312H10.9144V16.0316C10.9082 17.8631 9.43437 19.3461 7.61672 19.3461C7.10143 19.3469 6.59318 19.2253 6.13304 18.9913C6.73561 19.7889 7.68717 20.3036 8.75814 20.3036C10.5756 20.3036 12.0496 18.8208 12.056 16.9891V1.27791L14.8973 1.27783ZM8.61781 9.72004V8.82881C8.28998 8.78365 7.95948 8.76103 7.62861 8.76111C3.64671 8.76111 0.418945 12.0163 0.418945 16.0316C0.418945 18.5491 1.6875 20.7677 3.61521 22.0727C2.34379 20.7619 1.56045 18.9679 1.56045 16.9891C1.56045 13.0249 4.70612 9.80155 8.61781 9.72004Z" fill="#00F2EA"/>
</g>
<defs>
<clipPath id="clip0_923_20406">
<rect width="21" height="24" fill="white" transform="translate(0.418945 0.320312)"/>
</clipPath>
</defs>
</svg>
