<svg width="25" height="24" viewBox="0 0 25 24" fill="none" xmlns="http://www.w3.org/2000/svg">
<mask id="mask0_175_4616" style="mask-type:alpha" maskUnits="userSpaceOnUse" x="0" y="-1" width="25" height="25">
<rect x="0.77832" y="-0.00012207" width="24" height="24" fill="#D9D9D9"/>
</mask>
<g mask="url(#mask0_175_4616)">
<path d="M7.77832 17.9999C6.11165 17.9999 4.69499 17.4165 3.52832 16.2499C2.36165 15.0832 1.77832 13.6665 1.77832 11.9999C1.77832 10.3332 2.36165 8.91654 3.52832 7.74988C4.69499 6.58321 6.11165 5.99988 7.77832 5.99988C8.87832 5.99988 9.88665 6.27488 10.8033 6.82488C11.72 7.37488 12.445 8.09988 12.9783 8.99988H23.7783V14.9999H21.7783V17.9999H15.7783V14.9999H12.9783C12.445 15.8999 11.72 16.6249 10.8033 17.1749C9.88665 17.7249 8.87832 17.9999 7.77832 17.9999ZM7.77832 15.9999C8.87832 15.9999 9.76165 15.6624 10.4283 14.9874C11.095 14.3124 11.495 13.6499 11.6283 12.9999H17.7783V15.9999H19.7783V12.9999H21.7783V10.9999H11.6283C11.495 10.3499 11.095 9.68738 10.4283 9.01238C9.76165 8.33738 8.87832 7.99988 7.77832 7.99988C6.67832 7.99988 5.73665 8.39154 4.95332 9.17488C4.16999 9.95821 3.77832 10.8999 3.77832 11.9999C3.77832 13.0999 4.16999 14.0415 4.95332 14.8249C5.73665 15.6082 6.67832 15.9999 7.77832 15.9999ZM7.77832 13.9999C8.32832 13.9999 8.79915 13.804 9.19082 13.4124C9.58249 13.0207 9.77832 12.5499 9.77832 11.9999C9.77832 11.4499 9.58249 10.979 9.19082 10.5874C8.79915 10.1957 8.32832 9.99988 7.77832 9.99988C7.22832 9.99988 6.75749 10.1957 6.36582 10.5874C5.97415 10.979 5.77832 11.4499 5.77832 11.9999C5.77832 12.5499 5.97415 13.0207 6.36582 13.4124C6.75749 13.804 7.22832 13.9999 7.77832 13.9999Z" fill="#007BFF"/>
</g>
</svg>
