<svg width="31" height="22" viewBox="0 0 31 22" fill="none" xmlns="http://www.w3.org/2000/svg">
<g clip-path="url(#clip0_923_20395)">
<path d="M29.7546 4.09573C29.5825 3.46264 29.2469 2.88548 28.7812 2.42171C28.3155 1.95794 27.7359 1.62375 27.1001 1.45241C24.7725 0.820312 15.4047 0.820312 15.4047 0.820312C15.4047 0.820312 6.03647 0.839446 3.70887 1.47155C3.07308 1.64289 2.49346 1.9771 2.02773 2.44089C1.562 2.90469 1.22641 3.48187 1.05439 4.11498C0.350349 8.23308 0.0772384 14.5081 1.07372 18.4615C1.24576 19.0946 1.58136 19.6717 2.04709 20.1355C2.51281 20.5993 3.09243 20.9335 3.72821 21.1048C6.0558 21.7369 15.4238 21.7369 15.4238 21.7369C15.4238 21.7369 24.7917 21.7369 27.1192 21.1048C27.755 20.9335 28.3346 20.5993 28.8004 20.1355C29.2661 19.6718 29.6017 19.0946 29.7738 18.4615C30.5164 14.3375 30.7452 8.06636 29.7546 4.09573Z" fill="#FF0000"/>
<path d="M12.4229 15.7611L20.1941 11.279L12.4229 6.79688V15.7611Z" fill="white"/>
</g>
<defs>
<clipPath id="clip0_923_20395">
<rect width="30" height="21" fill="white" transform="translate(0.418945 0.820312)"/>
</clipPath>
</defs>
</svg>
