<svg width="55" height="51" viewBox="0 0 55 51" fill="none" xmlns="http://www.w3.org/2000/svg">
<rect x="0.69043" y="0.929688" width="54" height="50" rx="4" fill="#C9C9C9"/>
<g clip-path="url(#clip0_923_20601)">
<path d="M40.3753 19.7372C40.2291 19.1945 39.9438 18.6998 39.548 18.3023C39.1521 17.9048 38.6594 17.6183 38.119 17.4715C36.1406 16.9297 28.1779 16.9297 28.1779 16.9297C28.1779 16.9297 20.2149 16.9461 18.2365 17.4879C17.6961 17.6348 17.2034 17.9212 16.8075 18.3188C16.4116 18.7163 16.1264 19.211 15.9802 19.7537C15.3817 23.2835 15.1496 28.6621 15.9966 32.0507C16.1428 32.5933 16.4281 33.088 16.824 33.4856C17.2198 33.8831 17.7125 34.1695 18.2529 34.3164C20.2314 34.8582 28.1942 34.8582 28.1942 34.8582C28.1942 34.8582 36.1569 34.8582 38.1352 34.3164C38.6757 34.1695 39.1684 33.8831 39.5643 33.4856C39.9601 33.0881 40.2454 32.5933 40.3917 32.0507C41.0229 28.5159 41.2174 23.1406 40.3753 19.7372Z" fill="#FF0000"/>
<path d="M25.6426 29.7363L32.2482 25.8945L25.6426 22.0527V29.7363Z" fill="white"/>
</g>
<defs>
<clipPath id="clip0_923_20601">
<rect width="25.5" height="18" fill="white" transform="translate(15.4404 16.9297)"/>
</clipPath>
</defs>
</svg>
