<svg width="253" height="281" viewBox="0 0 253 281" fill="none" xmlns="http://www.w3.org/2000/svg">
<path d="M243.079 188.127C249.276 172.982 252.429 156.923 252.429 140.379C252.429 123.836 249.276 107.775 243.079 92.631C250.091 87.5784 252.271 77.8873 247.876 70.2538C245.599 66.2971 241.922 63.4846 237.503 62.3037C233.643 61.281 229.65 61.6219 226.059 63.2411C205.836 37.1507 175.973 19.9249 143.403 15.5272C142.563 6.89543 135.27 0.126221 126.419 0.126221C117.569 0.126221 110.276 6.89543 109.436 15.4907C76.894 19.8859 47.0046 37.1495 26.7802 63.2047C18.8912 59.6497 9.39481 62.5837 4.96314 70.2537C2.68646 74.2104 2.06555 78.8247 3.24651 83.2199C4.26917 87.0551 6.54587 90.3544 9.75984 92.6674C3.56286 107.813 0.409668 123.872 0.409668 140.416C0.409668 156.961 3.56286 173.02 9.75984 188.164C2.74721 193.216 0.567996 202.907 4.96289 210.541C7.23956 214.498 10.9165 217.31 15.3357 218.491C16.7966 218.893 18.2941 219.088 19.7916 219.088C22.19 219.088 24.564 218.552 26.7678 217.566C46.99 243.656 76.8785 260.882 109.423 265.314C110.276 273.861 117.568 280.63 126.419 280.63C135.27 280.63 142.563 273.861 143.403 265.265C175.944 260.87 205.834 243.607 226.058 217.517C228.274 218.515 230.636 219.039 233.034 219.039C234.532 219.039 236.029 218.856 237.49 218.442C241.886 217.261 245.599 214.425 247.863 210.492C250.14 206.536 250.761 201.921 249.58 197.526C248.569 193.703 246.293 190.404 243.079 188.127ZM236.042 67.8156C238.976 68.5948 241.435 70.494 242.932 73.1115C246.049 78.5293 244.211 85.4812 238.793 88.6344C233.375 91.7511 226.424 89.9127 223.27 84.495C221.748 81.8775 221.335 78.7974 222.15 75.8633C222.929 72.9292 224.804 70.4698 227.446 68.9725C229.187 67.9742 231.123 67.4507 233.12 67.4507C234.045 67.4142 235.043 67.5721 236.042 67.8156ZM126.42 5.85825C132.69 5.85825 137.767 10.9351 137.767 17.205C137.767 23.4749 132.69 28.5517 126.42 28.5517C120.15 28.5517 115.074 23.4749 115.074 17.205C115.074 10.9351 120.15 5.85825 126.42 5.85825ZM9.92029 73.1234C12.0144 69.4709 15.8371 67.45 19.7698 67.45C21.7055 67.45 23.6292 67.9492 25.4431 68.9718C30.8609 72.0886 32.7356 79.0647 29.5825 84.4947C26.4657 89.9125 19.4896 91.7872 14.0596 88.634C11.4421 87.1122 9.54285 84.6773 8.76367 81.7432C7.98449 78.7848 8.3863 75.7408 9.92029 73.1234ZM16.7989 212.936C13.8648 212.157 11.4054 210.258 9.90813 207.641C6.79141 202.223 8.62978 195.271 14.0475 192.118C15.825 191.095 17.785 190.596 19.7208 190.596C23.6532 190.596 27.4762 192.617 29.5703 196.269C31.0921 198.887 31.5061 201.967 30.6904 204.901C29.9112 207.835 28.0363 210.295 25.3944 211.792C22.8256 213.301 19.733 213.716 16.7989 212.936ZM126.42 274.894C120.15 274.894 115.074 269.817 115.074 263.547C115.074 257.277 120.15 252.2 126.42 252.2C132.69 252.2 137.767 257.277 137.767 263.547C137.767 269.817 132.69 274.894 126.42 274.894ZM143.027 259.529C141.225 252.054 134.456 246.442 126.42 246.442C118.385 246.442 111.616 252.018 109.814 259.529C79.0243 255.256 50.7553 238.954 31.5189 214.337C33.7955 212.182 35.4148 209.479 36.2304 206.387C37.4114 201.991 36.7905 197.377 34.5138 193.421C30.496 186.444 22.266 183.388 14.8759 185.592C9.0807 171.226 6.11015 156.056 6.11015 140.375C6.11015 124.693 9.06861 109.524 14.9003 95.1449C16.4951 95.6075 18.1142 95.8632 19.7337 95.8632C25.6505 95.8632 31.3849 92.8074 34.5746 87.3287C38.5923 80.3768 37.1313 71.7086 31.5552 66.4127C50.7914 41.7955 79.0479 25.4558 109.85 21.1828C111.652 28.6579 118.421 34.2705 126.457 34.2705C134.492 34.2705 141.261 28.6944 143.063 21.1828C173.853 25.4561 202.122 41.7581 221.358 66.3753C219.081 68.5302 217.462 71.233 216.647 74.3254C215.466 78.7206 216.087 83.3346 218.363 87.2916C221.516 92.7823 227.275 95.8261 233.204 95.8261C234.823 95.8261 236.443 95.5826 238.038 95.1078C243.76 109.523 246.73 124.692 246.73 140.372C246.73 156.016 243.772 171.223 237.94 185.564C234.945 184.664 231.768 184.627 228.651 185.443C224.256 186.624 220.542 189.46 218.278 193.393C214.26 200.345 215.721 209.013 221.297 214.309C202.098 238.95 173.829 255.291 143.027 259.529ZM242.921 207.63C239.804 213.047 232.828 214.922 227.398 211.769C221.98 208.652 220.105 201.676 223.258 196.246C224.78 193.629 227.215 191.729 230.149 190.95C231.111 190.707 232.109 190.548 233.108 190.548C235.068 190.548 237.004 191.084 238.781 192.07C241.399 193.592 243.298 196.027 244.077 198.961C244.856 201.968 244.455 205.012 242.921 207.63ZM67.8231 125.23C78.3542 125.23 86.9252 116.659 86.9252 106.128C86.9252 95.5965 78.3542 87.0255 67.8231 87.0255C57.292 87.0255 48.721 95.5965 48.721 106.128C48.721 116.659 57.292 125.23 67.8231 125.23ZM67.8231 92.7472C75.2132 92.7472 81.191 98.7616 81.191 106.115C81.191 113.505 75.1767 119.483 67.8231 119.483C60.4695 119.483 54.4552 113.469 54.4552 106.115C54.4552 98.7372 60.4695 92.7472 67.8231 92.7472ZM221.699 161.474C220.299 140.4 205.555 126.227 184.981 126.227C173.013 126.227 162.628 131.182 155.968 139.936C148.055 133.799 137.925 130.366 126.396 130.366C114.867 130.366 104.737 133.824 96.8236 139.936C90.1519 131.182 79.7788 126.227 67.8112 126.227C47.2359 126.227 32.505 140.374 31.0931 161.474C30.9105 164.372 31.994 167.026 34.1733 168.925C42.5131 176.181 55.7348 180.893 67.8246 180.893C71.5014 180.893 75.3973 180.43 79.2324 179.578C79.7925 181.672 80.949 183.571 82.6658 185.068C93.4771 194.516 110.619 200.652 126.397 200.652C142.163 200.652 159.34 194.54 170.127 185.068C171.844 183.571 173.025 181.672 173.561 179.578C177.444 180.454 181.34 180.893 185.017 180.893C197.143 180.893 210.328 176.181 218.619 168.925C220.798 167.026 221.882 164.372 221.699 161.474ZM79.1087 173.758C75.3101 174.696 71.4388 175.195 67.8228 175.195C57.1941 175.195 45.1901 170.958 37.9948 164.627C37.1547 163.885 36.7773 162.972 36.8382 161.852C38.0192 143.967 50.486 131.963 67.8228 131.963C78.2688 131.963 86.9614 136.139 92.5375 143.772C85.1596 151.248 80.3872 161.535 79.1087 173.758ZM166.377 180.771C156.71 189.245 140.628 194.918 126.421 194.918C112.214 194.918 96.1298 189.245 86.4642 180.771C85.125 179.614 84.5285 178.117 84.6259 176.376C86.2207 152.282 103.01 136.101 126.421 136.101C149.833 136.101 166.621 152.282 168.216 176.376C168.314 178.117 167.716 179.614 166.377 180.771ZM214.845 164.627C207.65 170.958 195.646 175.195 185.017 175.195C181.401 175.195 177.542 174.696 173.731 173.758C172.489 161.535 167.68 151.259 160.303 143.772C165.879 136.138 174.571 131.962 185.017 131.962C202.378 131.962 214.809 143.967 216.002 161.851C216.063 162.971 215.685 163.872 214.845 164.627ZM185.017 125.229C195.548 125.229 204.119 116.658 204.119 106.127C204.119 95.5956 195.548 87.0246 185.017 87.0246C174.486 87.0246 165.915 95.5956 165.915 106.127C165.915 116.658 174.486 125.229 185.017 125.229ZM185.017 92.7463C192.407 92.7463 198.385 98.7606 198.385 106.114C198.385 113.504 192.371 119.482 185.017 119.482C177.664 119.482 171.649 113.468 171.649 106.114C171.613 98.7363 177.627 92.7463 185.017 92.7463ZM126.42 128.685C139.824 128.685 150.696 117.777 150.696 104.409C150.696 91.0408 139.788 80.1323 126.42 80.1323C113.052 80.1323 102.143 91.0408 102.143 104.409C102.143 117.777 113.015 128.685 126.42 128.685ZM126.42 85.8303C136.646 85.8303 144.998 94.1578 144.998 104.409C144.998 114.635 136.671 122.987 126.42 122.987C116.169 122.987 107.841 114.66 107.841 104.409C107.841 94.1575 116.193 85.8303 126.42 85.8303Z" fill="url(#paint0_linear_2_8419)" fill-opacity="0.8"/>
<defs>
<linearGradient id="paint0_linear_2_8419" x1="0.409668" y1="140.378" x2="252.429" y2="140.378" gradientUnits="userSpaceOnUse">
<stop stop-color="#320868" stop-opacity="0.71"/>
<stop offset="0.56" stop-color="#CBACEA" stop-opacity="0.48"/>
<stop offset="1" stop-color="#153864"/>
</linearGradient>
</defs>
</svg>
