<svg width="348" height="348" viewBox="0 0 348 348" fill="none" xmlns="http://www.w3.org/2000/svg">
<path d="M84.5459 102.16C78.5511 92.8826 81.2121 80.5021 90.4895 74.5072L117.495 57.0571C126.772 51.0623 139.153 53.7233 145.147 63.0007L200.638 148.876C206.633 158.153 203.972 170.534 194.695 176.529L187.252 181.338C180.558 185.663 178.638 194.596 182.964 201.29C187.289 207.984 196.222 209.904 202.916 205.579L227.156 189.915C241.008 180.964 244.99 162.437 235.733 150.011L158.534 30.5388C149.583 16.687 132.481 13.0112 118.629 21.9619L58.0276 61.1212C51.1017 65.5965 46.7198 72.1097 45.1882 79.2354C43.6566 86.3612 44.9753 94.0996 49.4507 101.026L71.8274 135.655C76.1528 142.349 85.0857 144.269 91.7796 139.943C98.4735 135.618 100.393 126.685 96.0681 119.991L84.5459 102.16Z" fill="url(#paint0_linear_2_8391)" fill-opacity="0.8"/>
<path d="M229.209 326.038L289.81 286.879C303.662 277.928 307.338 260.826 298.387 246.975L276.011 212.345C271.685 205.651 262.752 203.731 256.058 208.057C249.365 212.382 247.445 221.315 251.77 228.009L263.292 245.84C269.287 255.118 266.626 267.498 257.349 273.493L230.343 290.943C221.066 296.938 208.685 294.277 202.691 284.999L147.2 199.124C141.205 189.847 143.866 177.466 153.144 171.471L160.586 166.662C167.28 162.337 169.2 153.404 164.874 146.71C160.549 140.016 151.616 138.096 144.922 142.422L120.682 158.085C113.756 162.561 109.374 169.074 107.842 176.199C106.311 183.325 107.629 191.064 112.105 197.99L189.304 317.461C196.83 331.007 215.357 334.989 229.209 326.038Z" fill="url(#paint1_linear_2_8391)" fill-opacity="0.8"/>
<defs>
<linearGradient id="paint0_linear_2_8391" x1="164.647" y1="22.9068" x2="126.663" y2="199.626" gradientUnits="userSpaceOnUse">
<stop stop-color="#320868" stop-opacity="0.71"/>
<stop offset="0.56" stop-color="#CBACEA" stop-opacity="0.48"/>
<stop offset="1" stop-color="#153864"/>
</linearGradient>
<linearGradient id="paint1_linear_2_8391" x1="221.175" y1="148.374" x2="183.191" y2="325.093" gradientUnits="userSpaceOnUse">
<stop stop-color="#320868" stop-opacity="0.71"/>
<stop offset="0.56" stop-color="#CBACEA" stop-opacity="0.48"/>
<stop offset="1" stop-color="#153864"/>
</linearGradient>
</defs>
</svg>
