<svg width="120" height="40" viewBox="0 0 120 40" fill="none" xmlns="http://www.w3.org/2000/svg">
<path d="M31.0336 29.5622C31.0336 29.757 31.1915 29.9148 31.3863 29.9148H34.4579C34.6527 29.9148 34.8106 29.757 34.8106 29.5622V11.3734C34.8106 11.1787 34.6527 11.0208 34.4579 11.0208H31.3863C31.1915 11.0208 31.0336 11.1787 31.0336 11.3734V29.5622ZM25.1266 26.6131C25.1266 26.6036 25.1342 26.596 25.1437 26.596H28.5509C28.7456 26.596 28.9036 26.4381 28.9036 26.2433V14.2037C28.9036 14.009 28.7456 13.851 28.5509 13.851H25.4792C25.2844 13.851 25.1266 14.009 25.1266 14.2037V26.6131ZM19.2193 30.9681C19.2193 30.9642 19.2225 30.9611 19.2263 30.9611H22.6437C22.8384 30.9611 22.9963 30.8032 22.9963 30.6084V9.84785C22.9963 9.65307 22.8384 9.49519 22.6437 9.49519H19.572C19.3772 9.49519 19.2193 9.65307 19.2193 9.84785V30.9681ZM13.4304 39.9486C13.4302 39.9444 13.4336 39.941 13.4377 39.941H16.8545C17.0492 39.941 17.2071 39.783 17.2071 39.5883V0.352667C17.2071 0.157895 17.0492 0 16.8545 0H13.783C13.5883 0 13.4304 0.157893 13.4304 0.352665V39.9486ZM7.52309 34.7187C7.52309 34.7146 7.52641 34.7114 7.53044 34.7114H10.9474C11.1422 34.7114 11.3001 34.5535 11.3001 34.3587V5.73163C11.3001 5.53686 11.1422 5.37897 10.9474 5.37897H7.87574C7.68097 5.37897 7.52309 5.53686 7.52309 5.73163V34.7187ZM1.47662 28.7035C1.47662 28.8982 1.63452 29.0561 1.82929 29.0561H4.90096C5.09573 29.0561 5.25362 28.8982 5.25362 28.7035V11.7602C5.25362 11.5654 5.09573 11.4075 4.90096 11.4075H1.82929C1.63452 11.4075 1.47662 11.5654 1.47662 11.7602V28.7035Z" fill="#5A189A"/>
<path d="M44.4011 11.8309L36.8322 16.2084C36.7765 16.2407 36.7422 16.3001 36.7422 16.3645V24.6317C36.7422 24.703 36.7843 24.7677 36.8495 24.7965L44.4184 28.142C44.5375 28.1947 44.6714 28.1074 44.6714 27.9771V11.9869C44.6714 11.8481 44.5212 11.7614 44.4011 11.8309Z" fill="#5A189A"/>
<path d="M59.9934 22.8724C59.9934 25.0917 58.4963 26.3775 55.1849 26.3775C51.4157 26.3775 49.4781 24.6338 49.4781 21.5162H51.0986C51.0986 23.894 52.4901 25.0213 55.2202 25.0213C57.369 25.0213 58.373 24.3343 58.373 22.9605C58.373 21.9917 57.7389 21.2519 56.2946 20.882L52.8247 19.9838C50.8697 19.473 50.0594 18.3457 50.0594 16.8662C50.0594 14.7174 51.6094 13.5725 54.4628 13.5725C57.8446 13.5725 59.6235 15.1929 59.6235 17.8702H57.9855C57.9855 15.8974 56.8054 14.9111 54.4628 14.9111C52.6486 14.9111 51.6798 15.5275 51.6798 16.7957C51.6798 17.6764 52.2083 18.3457 53.5645 18.698L56.9991 19.561C59.0071 20.0719 59.9934 21.2343 59.9934 22.8724ZM66.4521 24.8451V26.1837H63.0174C62.1896 26.1837 61.7845 25.7962 61.7845 24.9508V18.7685H59.8471V17.4298H61.7845V15.2105L63.3521 14.735V17.4298H66.0998V18.7685H63.3521V24.8627L66.4521 24.8451ZM67.1143 18.6451C67.1143 17.8173 67.5193 17.4298 68.3472 17.4298H73.2968V18.7685H68.6818V26.1837H67.1143V18.6451ZM72.8558 21.6923C72.8558 18.8565 74.547 17.2537 77.048 17.2537C79.6374 17.2537 81.3279 18.8213 81.3279 21.5338V22.0974H74.371C74.424 23.8059 75.3222 25.1093 77.1364 25.1093C78.6332 25.1093 79.5138 24.3343 79.8134 23.119H81.3632C81.0113 24.7394 79.8487 26.3598 77.154 26.3598C74.3003 26.3598 72.8558 24.2815 72.8558 21.6923ZM74.3887 20.9878H79.7957C79.6904 19.4025 78.6155 18.4866 77.048 18.4866C75.6035 18.4866 74.5116 19.4025 74.3887 20.9878ZM81.8749 23.7531C81.8749 22.3616 82.7201 21.3928 84.7986 21.1991L88.2332 20.8644C88.1625 19.2792 87.4403 18.5219 85.8904 18.5219C84.6756 18.5219 83.7597 19.0855 83.6184 20.5474H82.0685C82.2622 18.5571 83.6007 17.2537 85.8728 17.2537C88.4268 17.2537 89.8007 18.8213 89.8007 21.1287V24.8451H91.0869V26.1837H89.4841C88.8141 26.1837 88.4268 25.7962 88.4268 25.1269V24.7042L88.6735 23.7707H88.2332C87.8982 25.1093 86.9654 26.3598 84.8339 26.3598C82.2622 26.3598 81.8749 24.669 81.8749 23.7531ZM83.4247 23.5593C83.4247 24.5633 84.0763 25.074 85.0806 25.074C86.9823 25.074 88.2332 23.7355 88.2332 21.9741L85.0629 22.3087C83.9887 22.4145 83.4247 22.7139 83.4247 23.5593ZM91.4862 26.1837V17.4298H93.0544V18.8565L92.7901 19.9133H93.2304C93.5823 18.3281 94.4805 17.2537 96.3477 17.2537C97.9505 17.2537 98.7611 18.3457 98.9724 19.9133H99.2537C99.6063 18.3281 100.505 17.2537 102.372 17.2537C104.239 17.2537 105.102 18.7509 105.102 20.7412V26.1837H103.534V21.0758C103.534 19.3849 103.164 18.5923 101.772 18.5923C100.064 18.5923 99.0777 20.1071 99.0777 22.3968V26.1837H97.5102V21.0758C97.5102 19.3849 97.1406 18.5923 95.7491 18.5923C94.0403 18.5923 93.0544 20.1071 93.0544 22.3968V26.1837H91.4862ZM110.465 14.5765C109.355 14.5765 109.02 15.2281 109.02 16.3378V17.4298H114.322C115.15 17.4298 115.502 17.7997 115.502 18.6451V24.8451H117.933V26.1837H105.551V24.8451H107.471V18.7685H105.551V17.4298H107.471V16.3202C107.471 14.4707 108.369 13.2378 110.535 13.2378H114.463V14.5765H110.465ZM109.02 24.8451H113.934V18.7685H109.02V24.8451Z" fill="white"/>
</svg>
