<svg width="120" height="40" viewBox="0 0 120 40" fill="none" xmlns="http://www.w3.org/2000/svg">
<path d="M29.557 29.5622C29.557 29.757 29.7149 29.9148 29.9097 29.9148H32.9813C33.1761 29.9148 33.334 29.757 33.334 29.5622V11.3734C33.334 11.1787 33.1761 11.0208 32.9813 11.0208H29.9097C29.7149 11.0208 29.557 11.1787 29.557 11.3734V29.5622ZM23.6499 26.6131C23.6499 26.6036 23.6576 26.596 23.667 26.596H27.0742C27.269 26.596 27.427 26.4381 27.427 26.2433V14.2037C27.427 14.009 27.269 13.851 27.0742 13.851H24.0026C23.8078 13.851 23.6499 14.009 23.6499 14.2037V26.6131ZM17.7427 30.9681C17.7427 30.9642 17.7458 30.9611 17.7496 30.9611H21.167C21.3618 30.9611 21.5197 30.8032 21.5197 30.6084V9.84784C21.5197 9.65307 21.3618 9.49519 21.167 9.49519H18.0954C17.9006 9.49519 17.7427 9.65307 17.7427 9.84784V30.9681ZM11.9537 39.9486C11.9536 39.9444 11.9569 39.941 11.9611 39.941H15.3778C15.5726 39.941 15.7305 39.783 15.7305 39.5883V0.352667C15.7305 0.157895 15.5726 0 15.3778 0H12.3064C12.1116 0 11.9537 0.157893 11.9537 0.352665V39.9486ZM6.04647 34.7187C6.04647 34.7146 6.04979 34.7114 6.05382 34.7114H9.47078C9.66555 34.7114 9.8235 34.5535 9.8235 34.3587V5.73163C9.8235 5.53686 9.66555 5.37897 9.47078 5.37897H6.39912C6.20435 5.37897 6.04647 5.53686 6.04647 5.73163V34.7187ZM0 28.7035C0 28.8982 0.157894 29.0561 0.352664 29.0561H3.42433C3.6191 29.0561 3.777 28.8982 3.777 28.7035V11.7602C3.777 11.5654 3.6191 11.4075 3.42433 11.4075H0.352664C0.157894 11.4075 0 11.5654 0 11.7602V28.7035Z" fill="#5A189A"/>
<path d="M42.9245 11.8312L35.3557 16.2087C35.3 16.2409 35.2656 16.3003 35.2656 16.3647V24.6319C35.2656 24.7032 35.3077 24.7679 35.373 24.7967L42.9419 28.1422C43.061 28.1949 43.1949 28.1076 43.1949 27.9774V11.9871C43.1949 11.8483 43.0446 11.7616 42.9245 11.8312Z" fill="#5A189A"/>
<path d="M59.9938 22.8729C59.9938 25.0922 58.4967 26.378 55.1853 26.378C51.416 26.378 49.4785 24.6343 49.4785 21.5167H51.099C51.099 23.8945 52.4905 25.0217 55.2206 25.0217C57.3694 25.0217 58.3734 24.3348 58.3734 22.961C58.3734 21.9922 57.7393 21.2524 56.295 20.8825L52.8251 19.9843C50.87 19.4735 50.0598 18.3462 50.0598 16.8667C50.0598 14.7179 51.6097 13.573 54.4632 13.573C57.8449 13.573 59.6239 15.1934 59.6239 17.8706H57.9859C57.9859 15.8979 56.8057 14.9116 54.4632 14.9116C52.649 14.9116 51.6802 15.528 51.6802 16.7962C51.6802 17.6769 52.2086 18.3462 53.5649 18.6985L56.9995 19.5615C59.0074 20.0723 59.9938 21.2348 59.9938 22.8729ZM66.4524 24.8456V26.1842H63.0178C62.19 26.1842 61.7849 25.7967 61.7849 24.9513V18.769H59.8474V17.4303H61.7849V15.211L63.3524 14.7355V17.4303H66.1002V18.769H63.3524V24.8632L66.4524 24.8456ZM67.1146 18.6456C67.1146 17.8178 67.5197 17.4303 68.3476 17.4303H73.2972V18.769H68.6822V26.1842H67.1146V18.6456ZM72.8562 21.6928C72.8562 18.857 74.5473 17.2542 77.0484 17.2542C79.6378 17.2542 81.3283 18.8217 81.3283 21.5343V22.0979H74.3714C74.4244 23.8064 75.3226 25.1098 77.1367 25.1098C78.6336 25.1098 79.5141 24.3348 79.8138 23.1195H81.3636C81.0117 24.7399 79.8491 26.3603 77.1544 26.3603C74.3007 26.3603 72.8562 24.282 72.8562 21.6928ZM74.389 20.9882H79.7961C79.6908 19.403 78.6159 18.4871 77.0484 18.4871C75.6039 18.4871 74.512 19.403 74.389 20.9882ZM81.8753 23.7535C81.8753 22.3621 82.7205 21.3933 84.7989 21.1996L88.2336 20.8649C88.1629 19.2797 87.4406 18.5224 85.8908 18.5224C84.676 18.5224 83.7601 19.086 83.6187 20.5479H82.0689C82.2625 18.5576 83.6011 17.2542 85.8731 17.2542C88.4272 17.2542 89.8011 18.8217 89.8011 21.1292V24.8456H91.0873V26.1842H89.4844C88.8145 26.1842 88.4272 25.7967 88.4272 25.1274V24.7047L88.6738 23.7711H88.2336C87.8986 25.1098 86.9657 26.3603 84.8343 26.3603C82.2625 26.3603 81.8753 24.6694 81.8753 23.7535ZM83.4251 23.5598C83.4251 24.5638 84.0767 25.0745 85.0809 25.0745C86.9827 25.0745 88.2336 23.7359 88.2336 21.9746L85.0633 22.3092C83.989 22.415 83.4251 22.7144 83.4251 23.5598ZM91.4866 26.1842V17.4303H93.0548V18.857L92.7905 19.9138H93.2307C93.5827 18.3286 94.4809 17.2542 96.3481 17.2542C97.9509 17.2542 98.7615 18.3462 98.9728 19.9138H99.2541C99.6067 18.3286 100.505 17.2542 102.372 17.2542C104.239 17.2542 105.102 18.7514 105.102 20.7417V26.1842H103.535V21.0763C103.535 19.3854 103.164 18.5928 101.773 18.5928C100.065 18.5928 99.0781 20.1075 99.0781 22.3973V26.1842H97.5106V21.0763C97.5106 19.3854 97.141 18.5928 95.7495 18.5928C94.0406 18.5928 93.0548 20.1075 93.0548 22.3973V26.1842H91.4866ZM110.465 14.5769C109.355 14.5769 109.021 15.2286 109.021 16.3383V17.4303H114.323C115.15 17.4303 115.503 17.8002 115.503 18.6456V24.8456H117.933V26.1842H105.551V24.8456H107.471V18.769H105.551V17.4303H107.471V16.3207C107.471 14.4712 108.369 13.2383 110.535 13.2383H114.463V14.5769H110.465ZM109.021 24.8456H113.935V18.769H109.021V24.8456Z" fill="black"/>
</svg>
