<svg width="61" height="61" viewBox="0 0 61 61" fill="none" xmlns="http://www.w3.org/2000/svg">
<path fill-rule="evenodd" clip-rule="evenodd" d="M48.3614 30.4007C48.3614 40.3447 40.2891 48.4807 30.4224 48.4807C20.5563 48.4807 12.484 40.3447 12.484 30.4007C12.484 18.3735 24.0324 9.73901 35.3555 12.9984L38.9433 9.38281C23.8123 4.29617 8 13.6766 8 30.4007C8 42.8304 18.0899 53 30.4224 53C42.7548 53 52.8453 42.8305 52.8453 30.4007L48.3614 30.4007ZM52.3179 16.7483C54.4038 14.646 51.2323 11.45 49.147 13.5519L29.4342 33.4191L21.3392 25.2607C19.2532 23.1589 16.0823 26.3554 18.1677 28.4572L27.8487 38.2135C28.7242 39.096 30.1446 39.096 31.0201 38.2135L52.3179 16.7483Z" fill="#5A189A"/>
</svg>
